<?xml version="1.0" encoding="utf-8"?>
<!-- Generator: Adobe Illustrator 16.0.0, SVG Export Plug-In . SVG Version: 6.00 Build 0)  -->
<!DOCTYPE svg PUBLIC "-//W3C//DTD SVG 1.1//EN" "http://www.w3.org/Graphics/SVG/1.1/DTD/svg11.dtd">
<svg version="1.1" id="Layer_1" xmlns="http://www.w3.org/2000/svg" xmlns:xlink="http://www.w3.org/1999/xlink" x="0px" y="0px"
	 width="32px" height="32px" viewBox="0 0 32 32" enable-background="new 0 0 32 32" xml:space="preserve">
<g>
	<linearGradient id="SVGID_1_" gradientUnits="userSpaceOnUse" x1="6.916" y1="16.0005" x2="25.0801" y2="16.0005">
		<stop  offset="0.005" style="stop-color:#8BD8BD"/>
		<stop  offset="1" style="stop-color:#5CBBC8"/>
	</linearGradient>
	<linearGradient id="SVGID_2_" gradientUnits="userSpaceOnUse" x1="6.416" y1="16.0005" x2="25.5801" y2="16.0005">
		<stop  offset="0.005" style="stop-color:#8BD8BD"/>
		<stop  offset="1" style="stop-color:#5CBBC8"/>
	</linearGradient>
	<path fill="url(#SVGID_1_)" stroke="url(#SVGID_2_)" stroke-miterlimit="10" d="M6.916,11.173v9.653
		c0,0.266,0.143,0.511,0.372,0.645l8.339,4.828c0.23,0.133,0.514,0.133,0.743,0l8.339-4.828c0.23-0.134,0.371-0.379,0.371-0.645
		v-9.653c0-0.267-0.141-0.511-0.371-0.645L16.37,5.702c-0.229-0.133-0.513-0.133-0.743,0l-8.339,4.827
		C7.059,10.662,6.916,10.907,6.916,11.173z"/>
	<path fill="#243665" d="M26.449,8.707L17.074,3.28c-0.663-0.383-1.487-0.383-2.15,0L5.549,8.707
		c-0.664,0.384-1.076,1.1-1.076,1.867v10.852c0,0.769,0.412,1.485,1.076,1.869l9.375,5.426c0.332,0.191,0.703,0.288,1.075,0.288
		s0.743-0.097,1.075-0.288l9.375-5.426c0.663-0.384,1.075-1.101,1.075-1.869V10.573C27.524,9.807,27.112,9.09,26.449,8.707z
		 M5.811,9.163l9.376-5.426c0.25-0.146,0.531-0.218,0.813-0.218s0.562,0.072,0.813,0.218l9.375,5.426
		c0.189,0.109,0.351,0.254,0.48,0.423c0.052,0.07,0.029,0.171-0.047,0.213l-9.683,5.379c-0.576,0.32-1.286,0.31-1.854-0.026
		L5.655,9.554C5.553,9.494,5.545,9.35,5.64,9.277C5.693,9.236,5.751,9.197,5.811,9.163z M5.811,22.837
		c-0.501-0.29-0.812-0.83-0.812-1.412V10.573c0-0.177,0.029-0.351,0.084-0.515C5.115,9.958,5.234,9.917,5.324,9.97l9.492,5.633
		c0.021,0.013,0.04,0.024,0.062,0.036c0.523,0.29,0.858,0.833,0.858,1.433v11.127c0,0.139-0.137,0.237-0.269,0.193
		c-0.097-0.033-0.191-0.077-0.281-0.13L5.811,22.837z M27.001,21.425c0,0.582-0.313,1.122-0.814,1.412l-9.375,5.426
		c-0.09,0.053-0.185,0.097-0.281,0.13c-0.132,0.044-0.268-0.055-0.268-0.193V17.137c0-0.615,0.334-1.186,0.879-1.471
		c0.018-0.01,0.034-0.02,0.052-0.028l9.586-5.325c0.093-0.051,0.204,0.01,0.215,0.115c0.003,0.048,0.007,0.098,0.007,0.146V21.425z"
		/>
</g>
</svg>
