<?xml version="1.0" encoding="utf-8"?>
<!-- Generator: Adobe Illustrator 16.0.0, SVG Export Plug-In . SVG Version: 6.00 Build 0)  -->
<!DOCTYPE svg PUBLIC "-//W3C//DTD SVG 1.1//EN" "http://www.w3.org/Graphics/SVG/1.1/DTD/svg11.dtd">
<svg version="1.1" id="Layer_1" xmlns="http://www.w3.org/2000/svg" xmlns:xlink="http://www.w3.org/1999/xlink" x="0px" y="0px"
	 width="1000px" height="800px" viewBox="0 0 1000 800" enable-background="new 0 0 1000 800" xml:space="preserve">
<g>
	<linearGradient id="SVGID_1_" gradientUnits="userSpaceOnUse" x1="688.5947" y1="478.2549" x2="839.8164" y2="478.2549">
		<stop  offset="0.005" style="stop-color:#8BD8BD"/>
		<stop  offset="1" style="stop-color:#5CBBC8"/>
	</linearGradient>
	<polygon fill="none" stroke="url(#SVGID_1_)" stroke-width="0.25" stroke-miterlimit="10" points="839.691,521.831 
		839.691,434.668 764.206,391.092 688.72,434.668 688.72,521.831 764.206,565.417 	"/>
	<linearGradient id="SVGID_2_" gradientUnits="userSpaceOnUse" x1="613.1084" y1="348.0415" x2="764.3311" y2="348.0415">
		<stop  offset="0.005" style="stop-color:#8BD8BD"/>
		<stop  offset="1" style="stop-color:#5CBBC8"/>
	</linearGradient>
	<polygon fill="none" stroke="url(#SVGID_2_)" stroke-width="0.25" stroke-miterlimit="10" points="764.206,391.618 
		764.206,304.463 688.72,260.879 613.233,304.463 613.233,391.618 688.72,435.204 	"/>
	<linearGradient id="SVGID_3_" gradientUnits="userSpaceOnUse" x1="462.1367" y1="260.8887" x2="613.3584" y2="260.8887">
		<stop  offset="0.005" style="stop-color:#8BD8BD"/>
		<stop  offset="1" style="stop-color:#5CBBC8"/>
	</linearGradient>
	<polygon fill="none" stroke="url(#SVGID_3_)" stroke-width="0.25" stroke-miterlimit="10" points="613.233,304.47 613.233,217.308 
		537.748,173.724 462.262,217.308 462.262,304.47 537.748,348.053 	"/>
	<linearGradient id="SVGID_4_" gradientUnits="userSpaceOnUse" x1="462.1367" y1="435.2061" x2="613.3584" y2="435.2061">
		<stop  offset="0.005" style="stop-color:#8BD8BD"/>
		<stop  offset="1" style="stop-color:#5CBBC8"/>
	</linearGradient>
	<polygon fill="none" stroke="url(#SVGID_4_)" stroke-width="0.25" stroke-miterlimit="10" points="613.233,478.785 
		613.233,391.618 537.748,348.041 462.262,391.618 462.262,478.785 537.748,522.371 	"/>
	<linearGradient id="SVGID_5_" gradientUnits="userSpaceOnUse" x1="386.6509" y1="303.9268" x2="537.873" y2="303.9268">
		<stop  offset="0.005" style="stop-color:#8BD8BD"/>
		<stop  offset="1" style="stop-color:#5CBBC8"/>
	</linearGradient>
	<polygon fill="none" stroke="url(#SVGID_5_)" stroke-width="0.25" stroke-miterlimit="10" points="537.748,347.508 
		537.748,260.339 462.262,216.762 386.776,260.339 386.776,347.508 462.262,391.092 	"/>
	<linearGradient id="SVGID_6_" gradientUnits="userSpaceOnUse" x1="311.1641" y1="260.8887" x2="462.3867" y2="260.8887">
		<stop  offset="0.005" style="stop-color:#8BD8BD"/>
		<stop  offset="1" style="stop-color:#5CBBC8"/>
	</linearGradient>
	<polygon fill="none" stroke="url(#SVGID_6_)" stroke-width="0.25" stroke-miterlimit="10" points="462.262,304.47 462.262,217.308 
		386.776,173.724 311.289,217.308 311.289,304.47 386.776,348.053 	"/>
	<linearGradient id="SVGID_7_" gradientUnits="userSpaceOnUse" x1="386.6509" y1="391.0864" x2="537.873" y2="391.0864">
		<stop  offset="0.005" style="stop-color:#8BD8BD"/>
		<stop  offset="1" style="stop-color:#5CBBC8"/>
	</linearGradient>
	<polygon fill="none" stroke="url(#SVGID_7_)" stroke-width="0.25" stroke-miterlimit="10" points="537.748,434.668 
		537.748,347.508 462.262,303.924 386.776,347.508 386.776,434.668 462.262,478.249 	"/>
	<linearGradient id="SVGID_8_" gradientUnits="userSpaceOnUse" x1="688.5947" y1="130.6646" x2="839.8164" y2="130.6646">
		<stop  offset="0.005" style="stop-color:#8BD8BD"/>
		<stop  offset="1" style="stop-color:#5CBBC8"/>
	</linearGradient>
	<polygon fill="none" stroke="url(#SVGID_8_)" stroke-width="0.25" stroke-miterlimit="10" points="839.691,174.251 839.691,87.083 
		764.206,43.501 688.72,87.083 688.72,174.251 764.206,217.828 	"/>
	<linearGradient id="SVGID_9_" gradientUnits="userSpaceOnUse" x1="613.1084" y1="173.7271" x2="764.3311" y2="173.7271">
		<stop  offset="0.005" style="stop-color:#8BD8BD"/>
		<stop  offset="1" style="stop-color:#5CBBC8"/>
	</linearGradient>
	<polygon fill="none" stroke="url(#SVGID_9_)" stroke-width="0.25" stroke-miterlimit="10" points="764.206,217.308 764.206,130.14 
		688.72,86.562 613.233,130.14 613.233,217.308 688.72,260.892 	"/>
	<linearGradient id="SVGID_10_" gradientUnits="userSpaceOnUse" x1="537.623" y1="129.5986" x2="688.8447" y2="129.5986">
		<stop  offset="0.005" style="stop-color:#8BD8BD"/>
		<stop  offset="1" style="stop-color:#5CBBC8"/>
	</linearGradient>
	<polygon fill="none" stroke="url(#SVGID_10_)" stroke-width="0.25" stroke-miterlimit="10" points="688.72,173.185 688.72,86.016 
		613.233,42.436 537.748,86.016 537.748,173.185 613.233,216.762 	"/>
	<linearGradient id="SVGID_11_" gradientUnits="userSpaceOnUse" x1="537.623" y1="303.9268" x2="688.8447" y2="303.9268">
		<stop  offset="0.005" style="stop-color:#8BD8BD"/>
		<stop  offset="1" style="stop-color:#5CBBC8"/>
	</linearGradient>
	<polygon fill="none" stroke="url(#SVGID_11_)" stroke-width="0.25" stroke-miterlimit="10" points="688.72,347.508 688.72,260.339 
		613.233,216.762 537.748,260.339 537.748,347.508 613.233,391.092 	"/>
	<linearGradient id="SVGID_12_" gradientUnits="userSpaceOnUse" x1="311.1641" y1="435.2061" x2="462.3867" y2="435.2061">
		<stop  offset="0.005" style="stop-color:#8BD8BD"/>
		<stop  offset="1" style="stop-color:#5CBBC8"/>
	</linearGradient>
	<polygon fill="none" stroke="url(#SVGID_12_)" stroke-width="0.25" stroke-miterlimit="10" points="462.262,478.785 
		462.262,391.618 386.776,348.041 311.289,391.618 311.289,478.785 386.776,522.371 	"/>
	<linearGradient id="SVGID_13_" gradientUnits="userSpaceOnUse" x1="235.6787" y1="478.2549" x2="386.9009" y2="478.2549">
		<stop  offset="0.005" style="stop-color:#8BD8BD"/>
		<stop  offset="1" style="stop-color:#5CBBC8"/>
	</linearGradient>
	<polygon fill="none" stroke="url(#SVGID_13_)" stroke-width="0.25" stroke-miterlimit="10" points="386.776,521.831 
		386.776,434.668 311.289,391.092 235.804,434.668 235.804,521.831 311.289,565.417 	"/>
	<linearGradient id="SVGID_14_" gradientUnits="userSpaceOnUse" x1="613.1084" y1="522.3643" x2="764.3311" y2="522.3643">
		<stop  offset="0.005" style="stop-color:#8BD8BD"/>
		<stop  offset="1" style="stop-color:#5CBBC8"/>
	</linearGradient>
	<polygon fill="none" stroke="url(#SVGID_14_)" stroke-width="0.25" stroke-miterlimit="10" points="764.206,565.947 
		764.206,478.785 688.72,435.204 613.233,478.785 613.233,565.947 688.72,609.524 	"/>
	<linearGradient id="SVGID_15_" gradientUnits="userSpaceOnUse" x1="462.1367" y1="522.3643" x2="613.3584" y2="522.3643">
		<stop  offset="0.005" style="stop-color:#8BD8BD"/>
		<stop  offset="1" style="stop-color:#5CBBC8"/>
	</linearGradient>
	<polygon fill="none" stroke="url(#SVGID_15_)" stroke-width="0.25" stroke-miterlimit="10" points="613.233,565.947 
		613.233,478.785 537.748,435.204 462.262,478.785 462.262,565.947 537.748,609.524 	"/>
	<linearGradient id="SVGID_16_" gradientUnits="userSpaceOnUse" x1="764.0811" y1="609.5332" x2="915.2949" y2="609.5332">
		<stop  offset="0.005" style="stop-color:#8BD8BD"/>
		<stop  offset="1" style="stop-color:#5CBBC8"/>
	</linearGradient>
	<polygon fill="none" stroke="url(#SVGID_16_)" stroke-width="0.25" stroke-miterlimit="10" points="915.17,653.114 915.17,565.947 
		839.691,522.371 764.206,565.947 764.206,653.114 839.691,696.696 	"/>
	<linearGradient id="SVGID_17_" gradientUnits="userSpaceOnUse" x1="688.5947" y1="652.5791" x2="839.8164" y2="652.5791">
		<stop  offset="0.005" style="stop-color:#8BD8BD"/>
		<stop  offset="1" style="stop-color:#5CBBC8"/>
	</linearGradient>
	<polygon fill="none" stroke="url(#SVGID_17_)" stroke-width="0.25" stroke-miterlimit="10" points="839.691,696.157 839.691,609 
		764.206,565.417 688.72,609 688.72,696.157 764.206,739.741 	"/>
	<linearGradient id="SVGID_18_" gradientUnits="userSpaceOnUse" x1="764.0811" y1="435.2061" x2="915.2949" y2="435.2061">
		<stop  offset="0.005" style="stop-color:#8BD8BD"/>
		<stop  offset="1" style="stop-color:#5CBBC8"/>
	</linearGradient>
	<polygon fill="none" stroke="url(#SVGID_18_)" stroke-width="0.25" stroke-miterlimit="10" points="915.17,478.785 915.17,391.618 
		839.691,348.041 764.206,391.618 764.206,478.785 839.691,522.371 	"/>
	<linearGradient id="SVGID_19_" gradientUnits="userSpaceOnUse" x1="839.5664" y1="303.9268" x2="990.7813" y2="303.9268">
		<stop  offset="0.005" style="stop-color:#8BD8BD"/>
		<stop  offset="1" style="stop-color:#5CBBC8"/>
	</linearGradient>
	<polygon fill="none" stroke="url(#SVGID_19_)" stroke-width="0.25" stroke-miterlimit="10" points="990.656,347.508 
		990.656,260.339 915.17,216.762 839.691,260.339 839.691,347.508 915.17,391.092 	"/>
	<linearGradient id="SVGID_20_" gradientUnits="userSpaceOnUse" x1="160.1919" y1="522.3643" x2="311.4141" y2="522.3643">
		<stop  offset="0.005" style="stop-color:#8BD8BD"/>
		<stop  offset="1" style="stop-color:#5CBBC8"/>
	</linearGradient>
	<polygon fill="none" stroke="url(#SVGID_20_)" stroke-width="0.25" stroke-miterlimit="10" points="311.289,565.947 
		311.289,478.785 235.804,435.204 160.317,478.785 160.317,565.947 235.804,609.524 	"/>
	<linearGradient id="SVGID_21_" gradientUnits="userSpaceOnUse" x1="764.0811" y1="348.0415" x2="915.2949" y2="348.0415">
		<stop  offset="0.005" style="stop-color:#8BD8BD"/>
		<stop  offset="1" style="stop-color:#5CBBC8"/>
	</linearGradient>
	<polygon fill="none" stroke="url(#SVGID_21_)" stroke-width="0.25" stroke-miterlimit="10" points="915.17,391.618 915.17,304.463 
		839.691,260.879 764.206,304.463 764.206,391.618 839.691,435.204 	"/>
	<linearGradient id="SVGID_22_" gradientUnits="userSpaceOnUse" x1="613.1084" y1="609.5332" x2="764.3311" y2="609.5332">
		<stop  offset="0.005" style="stop-color:#8BD8BD"/>
		<stop  offset="1" style="stop-color:#5CBBC8"/>
	</linearGradient>
	<polygon fill="none" stroke="url(#SVGID_22_)" stroke-width="0.25" stroke-miterlimit="10" points="764.206,653.114 
		764.206,565.947 688.72,522.371 613.233,565.947 613.233,653.114 688.72,696.696 	"/>
</g>
<g>
	<linearGradient id="SVGID_23_" gradientUnits="userSpaceOnUse" x1="537.623" y1="478.2549" x2="688.8447" y2="478.2549">
		<stop  offset="0.005" style="stop-color:#8BD8BD"/>
		<stop  offset="1" style="stop-color:#5CBBC8"/>
	</linearGradient>
	<polygon fill="none" stroke="url(#SVGID_23_)" stroke-width="0.25" stroke-miterlimit="10" points="688.72,521.831 688.72,434.668 
		613.233,391.092 537.748,434.668 537.748,521.831 613.233,565.417 	"/>
	<linearGradient id="SVGID_24_" gradientUnits="userSpaceOnUse" x1="462.1367" y1="348.0415" x2="613.3584" y2="348.0415">
		<stop  offset="0.005" style="stop-color:#8BD8BD"/>
		<stop  offset="1" style="stop-color:#5CBBC8"/>
	</linearGradient>
	<polygon fill="none" stroke="url(#SVGID_24_)" stroke-width="0.25" stroke-miterlimit="10" points="613.233,391.618 
		613.233,304.463 537.748,260.879 462.262,304.463 462.262,391.618 537.748,435.204 	"/>
	<linearGradient id="SVGID_25_" gradientUnits="userSpaceOnUse" x1="311.1641" y1="260.8887" x2="462.3867" y2="260.8887">
		<stop  offset="0.005" style="stop-color:#8BD8BD"/>
		<stop  offset="1" style="stop-color:#5CBBC8"/>
	</linearGradient>
	<polygon fill="none" stroke="url(#SVGID_25_)" stroke-width="0.25" stroke-miterlimit="10" points="462.262,304.47 
		462.262,217.308 386.776,173.724 311.289,217.308 311.289,304.47 386.776,348.053 	"/>
	<linearGradient id="SVGID_26_" gradientUnits="userSpaceOnUse" x1="311.1641" y1="435.2061" x2="462.3867" y2="435.2061">
		<stop  offset="0.005" style="stop-color:#8BD8BD"/>
		<stop  offset="1" style="stop-color:#5CBBC8"/>
	</linearGradient>
	<polygon fill="none" stroke="url(#SVGID_26_)" stroke-width="0.25" stroke-miterlimit="10" points="462.262,478.785 
		462.262,391.618 386.776,348.041 311.289,391.618 311.289,478.785 386.776,522.371 	"/>
	<linearGradient id="SVGID_27_" gradientUnits="userSpaceOnUse" x1="235.6787" y1="303.9268" x2="386.9009" y2="303.9268">
		<stop  offset="0.005" style="stop-color:#8BD8BD"/>
		<stop  offset="1" style="stop-color:#5CBBC8"/>
	</linearGradient>
	<polygon fill="none" stroke="url(#SVGID_27_)" stroke-width="0.25" stroke-miterlimit="10" points="386.776,347.508 
		386.776,260.339 311.289,216.762 235.804,260.339 235.804,347.508 311.289,391.092 	"/>
	<linearGradient id="SVGID_28_" gradientUnits="userSpaceOnUse" x1="160.1919" y1="260.8887" x2="311.4141" y2="260.8887">
		<stop  offset="0.005" style="stop-color:#8BD8BD"/>
		<stop  offset="1" style="stop-color:#5CBBC8"/>
	</linearGradient>
	<polygon fill="none" stroke="url(#SVGID_28_)" stroke-width="0.25" stroke-miterlimit="10" points="311.289,304.47 
		311.289,217.308 235.804,173.724 160.317,217.308 160.317,304.47 235.804,348.053 	"/>
	<linearGradient id="SVGID_29_" gradientUnits="userSpaceOnUse" x1="235.6787" y1="391.0864" x2="386.9009" y2="391.0864">
		<stop  offset="0.005" style="stop-color:#8BD8BD"/>
		<stop  offset="1" style="stop-color:#5CBBC8"/>
	</linearGradient>
	<polygon fill="none" stroke="url(#SVGID_29_)" stroke-width="0.25" stroke-miterlimit="10" points="386.776,434.668 
		386.776,347.508 311.289,303.924 235.804,347.508 235.804,434.668 311.289,478.249 	"/>
	<linearGradient id="SVGID_30_" gradientUnits="userSpaceOnUse" x1="537.623" y1="130.6646" x2="688.8447" y2="130.6646">
		<stop  offset="0.005" style="stop-color:#8BD8BD"/>
		<stop  offset="1" style="stop-color:#5CBBC8"/>
	</linearGradient>
	<polygon fill="none" stroke="url(#SVGID_30_)" stroke-width="0.25" stroke-miterlimit="10" points="688.72,174.251 688.72,87.083 
		613.233,43.501 537.748,87.083 537.748,174.251 613.233,217.828 	"/>
	<linearGradient id="SVGID_31_" gradientUnits="userSpaceOnUse" x1="462.1367" y1="173.7271" x2="613.3584" y2="173.7271">
		<stop  offset="0.005" style="stop-color:#8BD8BD"/>
		<stop  offset="1" style="stop-color:#5CBBC8"/>
	</linearGradient>
	<polygon fill="none" stroke="url(#SVGID_31_)" stroke-width="0.25" stroke-miterlimit="10" points="613.233,217.308 
		613.233,130.14 537.748,86.562 462.262,130.14 462.262,217.308 537.748,260.892 	"/>
	<linearGradient id="SVGID_32_" gradientUnits="userSpaceOnUse" x1="386.6509" y1="129.5986" x2="537.873" y2="129.5986">
		<stop  offset="0.005" style="stop-color:#8BD8BD"/>
		<stop  offset="1" style="stop-color:#5CBBC8"/>
	</linearGradient>
	<polygon fill="none" stroke="url(#SVGID_32_)" stroke-width="0.25" stroke-miterlimit="10" points="537.748,173.185 
		537.748,86.016 462.262,42.436 386.776,86.016 386.776,173.185 462.262,216.762 	"/>
	<linearGradient id="SVGID_33_" gradientUnits="userSpaceOnUse" x1="386.6509" y1="303.9268" x2="537.873" y2="303.9268">
		<stop  offset="0.005" style="stop-color:#8BD8BD"/>
		<stop  offset="1" style="stop-color:#5CBBC8"/>
	</linearGradient>
	<polygon fill="none" stroke="url(#SVGID_33_)" stroke-width="0.25" stroke-miterlimit="10" points="537.748,347.508 
		537.748,260.339 462.262,216.762 386.776,260.339 386.776,347.508 462.262,391.092 	"/>
	<linearGradient id="SVGID_34_" gradientUnits="userSpaceOnUse" x1="160.1919" y1="435.2061" x2="311.4141" y2="435.2061">
		<stop  offset="0.005" style="stop-color:#8BD8BD"/>
		<stop  offset="1" style="stop-color:#5CBBC8"/>
	</linearGradient>
	<polygon fill="none" stroke="url(#SVGID_34_)" stroke-width="0.25" stroke-miterlimit="10" points="311.289,478.785 
		311.289,391.618 235.804,348.041 160.317,391.618 160.317,478.785 235.804,522.371 	"/>
	<linearGradient id="SVGID_35_" gradientUnits="userSpaceOnUse" x1="84.707" y1="478.2549" x2="235.9287" y2="478.2549">
		<stop  offset="0.005" style="stop-color:#8BD8BD"/>
		<stop  offset="1" style="stop-color:#5CBBC8"/>
	</linearGradient>
	<polygon fill="none" stroke="url(#SVGID_35_)" stroke-width="0.25" stroke-miterlimit="10" points="235.804,521.831 
		235.804,434.668 160.317,391.092 84.832,434.668 84.832,521.831 160.317,565.417 	"/>
	<linearGradient id="SVGID_36_" gradientUnits="userSpaceOnUse" x1="462.1367" y1="522.3643" x2="613.3584" y2="522.3643">
		<stop  offset="0.005" style="stop-color:#8BD8BD"/>
		<stop  offset="1" style="stop-color:#5CBBC8"/>
	</linearGradient>
	<polygon fill="none" stroke="url(#SVGID_36_)" stroke-width="0.25" stroke-miterlimit="10" points="613.233,565.947 
		613.233,478.785 537.748,435.204 462.262,478.785 462.262,565.947 537.748,609.524 	"/>
	<linearGradient id="SVGID_37_" gradientUnits="userSpaceOnUse" x1="311.1641" y1="522.3643" x2="462.3867" y2="522.3643">
		<stop  offset="0.005" style="stop-color:#8BD8BD"/>
		<stop  offset="1" style="stop-color:#5CBBC8"/>
	</linearGradient>
	<polygon fill="none" stroke="url(#SVGID_37_)" stroke-width="0.25" stroke-miterlimit="10" points="462.262,565.947 
		462.262,478.785 386.776,435.204 311.289,478.785 311.289,565.947 386.776,609.524 	"/>
	<linearGradient id="SVGID_38_" gradientUnits="userSpaceOnUse" x1="613.1084" y1="609.5332" x2="764.3311" y2="609.5332">
		<stop  offset="0.005" style="stop-color:#8BD8BD"/>
		<stop  offset="1" style="stop-color:#5CBBC8"/>
	</linearGradient>
	<polygon fill="none" stroke="url(#SVGID_38_)" stroke-width="0.25" stroke-miterlimit="10" points="764.206,653.114 
		764.206,565.947 688.72,522.371 613.233,565.947 613.233,653.114 688.72,696.696 	"/>
	<linearGradient id="SVGID_39_" gradientUnits="userSpaceOnUse" x1="537.623" y1="652.5791" x2="688.8447" y2="652.5791">
		<stop  offset="0.005" style="stop-color:#8BD8BD"/>
		<stop  offset="1" style="stop-color:#5CBBC8"/>
	</linearGradient>
	<polygon fill="none" stroke="url(#SVGID_39_)" stroke-width="0.25" stroke-miterlimit="10" points="688.72,696.157 688.72,609 
		613.233,565.417 537.748,609 537.748,696.157 613.233,739.741 	"/>
	<linearGradient id="SVGID_40_" gradientUnits="userSpaceOnUse" x1="613.1084" y1="435.2061" x2="764.3311" y2="435.2061">
		<stop  offset="0.005" style="stop-color:#8BD8BD"/>
		<stop  offset="1" style="stop-color:#5CBBC8"/>
	</linearGradient>
	<polygon fill="none" stroke="url(#SVGID_40_)" stroke-width="0.25" stroke-miterlimit="10" points="764.206,478.785 
		764.206,391.618 688.72,348.041 613.233,391.618 613.233,478.785 688.72,522.371 	"/>
	<linearGradient id="SVGID_41_" gradientUnits="userSpaceOnUse" x1="688.5947" y1="303.9268" x2="839.8164" y2="303.9268">
		<stop  offset="0.005" style="stop-color:#8BD8BD"/>
		<stop  offset="1" style="stop-color:#5CBBC8"/>
	</linearGradient>
	<polygon fill="none" stroke="url(#SVGID_41_)" stroke-width="0.25" stroke-miterlimit="10" points="839.691,347.508 
		839.691,260.339 764.206,216.762 688.72,260.339 688.72,347.508 764.206,391.092 	"/>
	<linearGradient id="SVGID_42_" gradientUnits="userSpaceOnUse" x1="9.2197" y1="522.3643" x2="160.4419" y2="522.3643">
		<stop  offset="0.005" style="stop-color:#8BD8BD"/>
		<stop  offset="1" style="stop-color:#5CBBC8"/>
	</linearGradient>
	<polygon fill="none" stroke="url(#SVGID_42_)" stroke-width="0.25" stroke-miterlimit="10" points="160.317,565.947 
		160.317,478.785 84.832,435.204 9.345,478.785 9.345,565.947 84.832,609.524 	"/>
	<linearGradient id="SVGID_43_" gradientUnits="userSpaceOnUse" x1="613.1084" y1="348.0415" x2="764.3311" y2="348.0415">
		<stop  offset="0.005" style="stop-color:#8BD8BD"/>
		<stop  offset="1" style="stop-color:#5CBBC8"/>
	</linearGradient>
	<polygon fill="none" stroke="url(#SVGID_43_)" stroke-width="0.25" stroke-miterlimit="10" points="764.206,391.618 
		764.206,304.463 688.72,260.879 613.233,304.463 613.233,391.618 688.72,435.204 	"/>
	<linearGradient id="SVGID_44_" gradientUnits="userSpaceOnUse" x1="462.1367" y1="609.5332" x2="613.3584" y2="609.5332">
		<stop  offset="0.005" style="stop-color:#8BD8BD"/>
		<stop  offset="1" style="stop-color:#5CBBC8"/>
	</linearGradient>
	<polygon fill="none" stroke="url(#SVGID_44_)" stroke-width="0.25" stroke-miterlimit="10" points="613.233,653.114 
		613.233,565.947 537.748,522.371 462.262,565.947 462.262,653.114 537.748,696.696 	"/>
</g>
</svg>
