<?xml version="1.0" encoding="utf-8"?>
<!-- Generator: Adobe Illustrator 16.0.0, SVG Export Plug-In . SVG Version: 6.00 Build 0)  -->
<!DOCTYPE svg PUBLIC "-//W3C//DTD SVG 1.1//EN" "http://www.w3.org/Graphics/SVG/1.1/DTD/svg11.dtd">
<svg version="1.1" id="Layer_1" xmlns="http://www.w3.org/2000/svg" xmlns:xlink="http://www.w3.org/1999/xlink" x="0px" y="0px"
	 width="512px" height="512px" viewBox="0 0 512 512" enable-background="new 0 0 512 512" xml:space="preserve">
<g>
	<path fill="#FFFFFF" d="M255.941,459.588c-112.255,0-203.579-91.343-203.579-203.618c0-112.235,91.324-203.559,203.579-203.559
		c112.314,0,203.696,91.323,203.696,203.559C459.637,368.245,368.255,459.588,255.941,459.588z M255.941,78.493
		c-97.883,0-177.498,79.614-177.498,177.477c0,97.903,79.614,177.538,177.498,177.538c97.942,0,177.614-79.635,177.614-177.538
		C433.555,158.107,353.883,78.493,255.941,78.493z"/>
</g>
<g>
	<path fill="#FFFFFF" d="M255.941,459.588c-61.992,0-110.571-89.443-110.571-203.618c0-114.134,48.579-203.559,110.571-203.559
		c62.05,0,110.65,89.424,110.65,203.559C366.591,370.145,317.991,459.588,255.941,459.588z M255.941,78.493
		c-45.799,0-84.49,81.278-84.49,177.477c0,96.239,38.691,177.538,84.49,177.538c45.838,0,84.569-81.299,84.569-177.538
		C340.51,159.771,301.779,78.493,255.941,78.493z"/>
</g>
<g>
	<path fill="#FFFFFF" d="M446.596,269.011H65.403c-7.206,0-13.041-5.833-13.041-13.041c0-7.205,5.835-13.041,13.041-13.041h381.193
		c7.207,0,13.041,5.836,13.041,13.041C459.637,263.178,453.803,269.011,446.596,269.011z"/>
</g>
<g>
	<path fill="#FFFFFF" d="M255.941,459.588c-7.206,0-13.041-5.834-13.041-13.04V65.452c0-7.206,5.835-13.041,13.041-13.041
		s13.041,5.835,13.041,13.041v381.096C268.981,453.754,263.146,459.588,255.941,459.588z"/>
</g>
<g>
	<path fill="#FFFFFF" d="M256.391,183.249c-53.004,0-106.146-8.909-159.072-26.747c-6.814-2.311-10.476-9.693-8.185-16.526
		c2.311-6.794,9.614-10.437,16.526-8.185c100.271,33.816,201.406,33.835,300.58,0.02c6.815-2.291,14.236,1.312,16.546,8.125
		c2.331,6.814-1.311,14.216-8.126,16.546C362.282,174.32,309.415,183.249,256.391,183.249z"/>
</g>
<g>
	<path fill="#FFFFFF" d="M101.49,376.665c-5.444,0-10.534-3.446-12.355-8.89c-2.291-6.834,1.391-14.215,8.204-16.506
		c105.774-35.46,212.528-35.46,317.284,0.02c6.833,2.29,10.476,9.691,8.164,16.526c-2.31,6.813-9.691,10.475-16.525,8.146
		c-99.176-33.562-200.348-33.562-300.62,0.019C104.251,376.45,102.86,376.665,101.49,376.665z"/>
</g>
</svg>
