<?xml version="1.0" encoding="utf-8"?>
<!-- Generator: Adobe Illustrator 16.0.0, SVG Export Plug-In . SVG Version: 6.00 Build 0)  -->
<!DOCTYPE svg PUBLIC "-//W3C//DTD SVG 1.1//EN" "http://www.w3.org/Graphics/SVG/1.1/DTD/svg11.dtd">
<svg version="1.1" id="Layer_1" xmlns="http://www.w3.org/2000/svg" xmlns:xlink="http://www.w3.org/1999/xlink" x="0px" y="0px"
	 width="512px" height="512px" viewBox="0 0 512 512" enable-background="new 0 0 512 512" xml:space="preserve">
<g>
	<g>
		<g>
			<path fill="#FFFFFF" stroke="#FFFFFF" stroke-width="3" stroke-miterlimit="10" d="M244.324,495.828
				c-47.188,0-93.149-24.461-118.381-68.162c-7.823-13.568-13.215-28.188-16.045-43.48l-80.482-22.811
				c-1.632-0.469-2.762-1.959-2.762-3.652c0-1.701,1.13-3.195,2.768-3.658l81.252-23c6.533-30.596,23.429-58.139,47.753-77.752
				c1.626-1.318,4.028-1.064,5.341,0.57c1.318,1.635,1.062,4.026-0.571,5.34c-23.542,18.982-39.713,45.834-45.539,75.596
				c-0.274,1.404-1.312,2.533-2.693,2.928l-70.577,19.977l69.875,19.805c1.41,0.406,2.465,1.58,2.705,3.029
				c2.557,15.258,7.783,29.832,15.555,43.314c35.502,61.48,114.427,82.627,175.935,47.166
				c61.477-35.52,82.623-114.451,47.131-175.961c-17.203-29.791-44.98-51.094-78.205-59.992
				c-33.218-8.893-67.922-4.331-97.696,12.884c-1.814,1.047-4.143,0.425-5.187-1.39c-1.05-1.817-0.428-4.14,1.387-5.189
				c31.537-18.219,68.282-23.058,103.458-13.643c35.188,9.423,64.602,31.984,82.822,63.537
				c37.584,65.133,15.188,148.719-49.916,186.332C290.838,489.963,267.432,495.828,244.324,495.828z"/>
		</g>
		<g>
			<path fill="#FFFFFF" stroke="#FFFFFF" stroke-width="3" stroke-miterlimit="10" d="M267.154,297.662
				c-60.215,0-115.466-40.221-131.791-101.052c-19.44-72.656,23.828-147.587,96.448-167.033
				c72.63-19.443,147.568,23.822,167.025,96.45c4.039,15.084,5.461,30.593,4.229,46.141l71.859,42.806
				c1.455,0.87,2.162,2.604,1.723,4.245s-1.916,2.793-3.611,2.816l-84.436,1.209c-8.32,16.245-19.504,30.393-33.283,42.087
				c-1.586,1.354-3.994,1.176-5.352-0.439c-1.359-1.598-1.164-3.994,0.434-5.352c13.568-11.512,24.479-25.554,32.432-41.733
				c0.629-1.281,1.924-2.103,3.35-2.123l73.326-1.053l-62.383-37.157c-1.26-0.753-1.973-2.166-1.83-3.629
				c1.494-15.446,0.217-30.875-3.795-45.853c-18.379-68.58-89.109-109.443-157.724-91.078
				c-68.574,18.362-109.429,89.121-91.073,157.729c18.396,68.555,89.15,109.375,157.736,91.023
				c10.27-2.762,20.129-6.732,29.305-11.805c1.832-1.021,4.143-0.348,5.164,1.488c1.01,1.832,0.348,4.143-1.49,5.158
				c-9.711,5.369-20.146,9.576-31.012,12.496C290.633,296.156,278.793,297.662,267.154,297.662z"/>
		</g>
		<g>
			<path fill="#FFFFFF" stroke="#FFFFFF" stroke-width="3" stroke-miterlimit="10" d="M251.61,278.264
				c-10.168,0-18.443-8.244-18.443-18.381c0-10.169,8.274-18.439,18.443-18.439c10.15,0,18.412,8.271,18.412,18.439
				C270.021,270.02,261.76,278.264,251.61,278.264z M251.61,249.038c-5.981,0-10.842,4.864-10.842,10.845
				c0,5.947,4.861,10.787,10.842,10.787c5.96,0,10.812-4.84,10.812-10.787C262.422,253.902,257.57,249.038,251.61,249.038z"/>
		</g>
		<g>
			<path fill="#FFFFFF" stroke="#FFFFFF" stroke-width="3" stroke-miterlimit="10" d="M319.859,116.51H208.474
				c-2.1,0-3.8-1.7-3.8-3.797c0-2.097,1.701-3.797,3.8-3.797h111.386c2.1,0,3.801,1.7,3.801,3.797
				C323.66,114.81,321.959,116.51,319.859,116.51z"/>
		</g>
		<g>
			<path fill="#FFFFFF" stroke="#FFFFFF" stroke-width="3" stroke-miterlimit="10" d="M289.955,142.797H178.552
				c-2.1,0-3.8-1.701-3.8-3.797c0-2.097,1.7-3.797,3.8-3.797h111.403c2.1,0,3.801,1.7,3.801,3.797
				C293.756,141.097,292.055,142.797,289.955,142.797z"/>
		</g>
		<g>
			<path fill="#FFFFFF" stroke="#FFFFFF" stroke-width="3" stroke-miterlimit="10" d="M352.07,393.174h-111.37
				c-2.1,0-3.8-1.699-3.8-3.795c0-2.1,1.7-3.799,3.8-3.799h111.37c2.1,0,3.799,1.699,3.799,3.799
				C355.869,391.475,354.17,393.174,352.07,393.174z"/>
		</g>
		<g>
			<path fill="#FFFFFF" stroke="#FFFFFF" stroke-width="3" stroke-miterlimit="10" d="M322.176,419.461H210.762
				c-2.1,0-3.8-1.699-3.8-3.799c0-2.096,1.701-3.795,3.8-3.795h111.414c2.1,0,3.801,1.699,3.801,3.795
				C325.977,417.762,324.275,419.461,322.176,419.461z"/>
		</g>
	</g>
</g>
</svg>
