<?xml version="1.0" encoding="utf-8"?>
<!-- Generator: Adobe Illustrator 16.0.0, SVG Export Plug-In . SVG Version: 6.00 Build 0)  -->
<!DOCTYPE svg PUBLIC "-//W3C//DTD SVG 1.1//EN" "http://www.w3.org/Graphics/SVG/1.1/DTD/svg11.dtd">
<svg version="1.1" id="Layer_1" xmlns="http://www.w3.org/2000/svg" xmlns:xlink="http://www.w3.org/1999/xlink" x="0px" y="0px"
	 width="512px" height="512px" viewBox="0 0 512 512" enable-background="new 0 0 512 512" xml:space="preserve">
<g>
	<g>
		<g>
			<path fill="#FFFFFF" stroke="#FFFFFF" stroke-width="5" stroke-miterlimit="10" d="M482.649,448.078H30.893
				c-2.086,0-3.776-1.689-3.776-3.775V67.697c0-2.086,1.689-3.776,3.776-3.776h451.757c2.086,0,3.776,1.689,3.776,3.776v376.605
				C486.426,446.389,484.735,448.078,482.649,448.078z M34.668,440.526h444.205V71.473H34.668V440.526z"/>
		</g>
		<g>
			<path fill="#FFFFFF" stroke="#FFFFFF" stroke-width="5" stroke-miterlimit="10" d="M482.649,448.078H282.473
				c-1.36,0-2.619-0.732-3.288-1.917l-1.509-2.677c-0.918-1.616-0.521-3.656,0.93-4.807l29.029-23.15
				c-1.984-5.617-3.492-11.294-4.513-16.936l-36.729-5.5c-1.849-0.271-3.221-1.858-3.221-3.73v-17.758
				c0-1.87,1.372-3.458,3.221-3.731l36.729-5.492c1.021-5.654,2.54-11.329,4.513-16.931l-29.029-23.155
				c-1.463-1.163-1.848-3.221-0.918-4.837l10.262-17.758c0.93-1.615,2.903-2.319,4.649-1.621l34.575,13.59
				c3.729-4.371,7.88-8.516,12.382-12.365l-13.631-34.592c-0.68-1.74,0.013-3.719,1.634-4.654l17.78-10.246
				c1.611-0.924,3.674-0.539,4.831,0.924l23.144,29.075c5.365-1.934,11.022-3.459,16.885-4.543l5.545-36.751
				c0.284-1.848,1.871-3.214,3.731-3.214h20.479c1.858,0,3.447,1.366,3.729,3.214l5.523,36.751c5.862,1.09,11.532,2.609,16.92,4.543
				l23.131-29.075c1.158-1.469,3.231-1.854,4.831-0.924l10.443,6.015c1.168,0.675,1.894,1.922,1.894,3.271v22.884
				c0,0.476-0.091,0.946-0.272,1.389l-6.306,15.944c2.009,1.718,3.801,3.345,5.435,4.921c0.725,0.715,1.144,1.689,1.144,2.71
				v137.357C486.426,446.389,484.735,448.078,482.649,448.078z M288.381,440.526h190.492V308.562
				c-1.745-1.639-3.707-3.351-5.94-5.199c-1.259-1.038-1.714-2.778-1.111-4.298l7.052-17.803v-19.98l-5.737-3.306l-22.814,28.678
				c-1.033,1.298-2.779,1.769-4.319,1.168c-6.487-2.528-13.45-4.405-20.73-5.573c-1.622-0.262-2.881-1.543-3.129-3.164l-5.442-36.23
				h-13.972l-5.477,36.23c-0.25,1.627-1.521,2.902-3.129,3.164c-7.27,1.168-14.221,3.045-20.673,5.573
				c-1.53,0.601-3.301,0.142-4.332-1.168l-22.827-28.678l-12.145,6.996l13.427,34.099c0.602,1.53,0.148,3.271-1.123,4.309
				c-5.67,4.615-10.771,9.724-15.184,15.178c-1.044,1.276-2.777,1.752-4.32,1.135l-34.087-13.404l-7.008,12.134l28.621,22.827
				c1.281,1.021,1.758,2.755,1.168,4.292c-2.608,6.849-4.456,13.822-5.511,20.733c-0.25,1.639-1.543,2.921-3.175,3.163l-36.23,5.416
				v11.261l36.23,5.42c1.632,0.243,2.925,1.524,3.175,3.164c1.043,6.895,2.902,13.873,5.511,20.739
				c0.59,1.538,0.113,3.271-1.168,4.293L288.381,440.526z"/>
		</g>
		<g>
			<path fill="#FFFFFF" stroke="#FFFFFF" stroke-width="5" stroke-miterlimit="10" d="M482.649,147.806H30.893
				c-2.086,0-3.776-1.689-3.776-3.776c0-2.086,1.689-3.776,3.776-3.776h451.757c2.086,0,3.776,1.69,3.776,3.776
				C486.426,146.117,484.735,147.806,482.649,147.806z"/>
		</g>
		<g>
			<path fill="#FFFFFF" stroke="#FFFFFF" stroke-width="5" stroke-miterlimit="10" d="M76.5,121.64
				c-9.151,0-16.612-7.439-16.612-16.584c0-9.179,7.461-16.646,16.612-16.646c9.185,0,16.646,7.468,16.646,16.646
				C93.147,114.201,85.686,121.64,76.5,121.64z M76.5,95.961c-4.989,0-9.061,4.077-9.061,9.094c0,4.984,4.071,9.032,9.061,9.032
				c5.023,0,9.095-4.048,9.095-9.032C85.595,100.038,81.524,95.961,76.5,95.961z"/>
		</g>
		<g>
			<path fill="#FFFFFF" stroke="#FFFFFF" stroke-width="5" stroke-miterlimit="10" d="M132.246,121.64
				c-9.163,0-16.624-7.439-16.624-16.584c0-9.179,7.461-16.646,16.624-16.646c9.162,0,16.624,7.468,16.624,16.646
				C148.87,114.201,141.408,121.64,132.246,121.64z M132.246,95.961c-5.091,0-9.072,3.991-9.072,9.094
				c0,4.984,4.071,9.032,9.072,9.032c5,0,9.071-4.048,9.071-9.032C141.317,100.038,137.247,95.961,132.246,95.961z"/>
		</g>
		<g>
			<path fill="#FFFFFF" stroke="#FFFFFF" stroke-width="5" stroke-miterlimit="10" d="M482.649,108.832H231.671
				c-2.086,0-3.776-1.69-3.776-3.777c0-2.086,1.69-3.776,3.776-3.776h250.978c2.086,0,3.776,1.69,3.776,3.776
				C486.426,107.142,484.735,108.832,482.649,108.832z"/>
		</g>
		<g>
			<path fill="#FFFFFF" stroke="#FFFFFF" stroke-width="5" stroke-miterlimit="10" d="M428.321,207.219H85.232
				c-2.086,0-3.776-1.689-3.776-3.776v-23.541c0-2.086,1.69-3.776,3.776-3.776h343.089c2.087,0,3.776,1.689,3.776,3.776v23.541
				C432.098,205.53,430.408,207.219,428.321,207.219z M89.008,199.667h335.538v-15.989H89.008V199.667z"/>
		</g>
		<g>
			<path fill="#FFFFFF" stroke="#FFFFFF" stroke-width="5" stroke-miterlimit="10" d="M282.087,256.496H83.769
				c-2.086,0-3.776-1.69-3.776-3.776c0-2.086,1.689-3.776,3.776-3.776h198.318c2.087,0,3.776,1.69,3.776,3.776
				C285.863,254.806,284.174,256.496,282.087,256.496z"/>
		</g>
		<g>
			<path fill="#FFFFFF" stroke="#FFFFFF" stroke-width="5" stroke-miterlimit="10" d="M155.934,280.219H83.769
				c-2.086,0-3.776-1.69-3.776-3.777c0-2.086,1.689-3.775,3.776-3.775h72.165c2.087,0,3.776,1.689,3.776,3.775
				C159.71,278.528,158.021,280.219,155.934,280.219z"/>
		</g>
		<g>
			<path fill="#FFFFFF" stroke="#FFFFFF" stroke-width="5" stroke-miterlimit="10" d="M242.727,303.991H83.769
				c-2.086,0-3.776-1.689-3.776-3.776c0-2.086,1.689-3.775,3.776-3.775h158.958c2.086,0,3.776,1.689,3.776,3.775
				C246.503,302.302,244.813,303.991,242.727,303.991z"/>
		</g>
		<g>
			<path fill="#FFFFFF" stroke="#FFFFFF" stroke-width="5" stroke-miterlimit="10" d="M200.159,327.714H83.769
				c-2.086,0-3.776-1.689-3.776-3.776c0-2.086,1.689-3.776,3.776-3.776h116.39c2.086,0,3.776,1.69,3.776,3.776
				C203.935,326.024,202.245,327.714,200.159,327.714z"/>
		</g>
		<g>
			<path fill="#FFFFFF" stroke="#FFFFFF" stroke-width="5" stroke-miterlimit="10" d="M241.899,351.432H83.769
				c-2.086,0-3.776-1.69-3.776-3.776c0-2.088,1.689-3.777,3.776-3.777h158.13c2.086,0,3.776,1.689,3.776,3.777
				C245.675,349.741,243.986,351.432,241.899,351.432z"/>
		</g>
		<g>
			<path fill="#FFFFFF" stroke="#FFFFFF" stroke-width="5" stroke-miterlimit="10" d="M196.451,375.204H83.769
				c-2.086,0-3.776-1.69-3.776-3.776s1.689-3.776,3.776-3.776h112.682c2.086,0,3.776,1.69,3.776,3.776
				S198.537,375.204,196.451,375.204z"/>
		</g>
	</g>
</g>
</svg>
