<?xml version="1.0" encoding="utf-8"?>
<!-- Generator: Adobe Illustrator 16.0.0, SVG Export Plug-In . SVG Version: 6.00 Build 0)  -->
<!DOCTYPE svg PUBLIC "-//W3C//DTD SVG 1.1//EN" "http://www.w3.org/Graphics/SVG/1.1/DTD/svg11.dtd">
<svg version="1.1" id="Layer_1" xmlns="http://www.w3.org/2000/svg" xmlns:xlink="http://www.w3.org/1999/xlink" x="0px" y="0px"
	 width="512px" height="512px" viewBox="0 0 512 512" enable-background="new 0 0 512 512" xml:space="preserve">
<g>
	<g>
		<g>
			<path fill="#FFFFFF" stroke="#FFFFFF" stroke-width="5" stroke-miterlimit="10" d="M255.227,65.671
				c-14.063,0-25.51-11.453-25.51-25.528c0-14.068,11.448-25.521,25.51-25.521c14.086,0,25.552,11.453,25.552,25.521
				C280.778,54.218,269.313,65.671,255.227,65.671z M255.227,22.522c-9.71,0-17.61,7.906-17.61,17.621
				c0,9.722,7.9,17.627,17.61,17.627c9.732,0,17.65-7.906,17.65-17.627C272.877,30.429,264.959,22.522,255.227,22.522z"/>
		</g>
		<g>
			<path fill="#FFFFFF" stroke="#FFFFFF" stroke-width="5" stroke-miterlimit="10" d="M255.227,142.057
				c-2.184,0-3.95-1.768-3.95-3.95V40.144c0-2.182,1.767-3.95,3.95-3.95c2.183,0,3.949,1.768,3.949,3.95v97.963
				C259.176,140.29,257.409,142.057,255.227,142.057z"/>
		</g>
		<g>
			<path fill="#FFFFFF" stroke="#FFFFFF" stroke-width="5" stroke-miterlimit="10" d="M407.063,128.541
				c-6.827,0-13.238-2.658-18.067-7.479c-9.935-9.917-9.935-26.103-0.005-36.079c4.834-4.828,11.245-7.484,18.072-7.484
				c6.826,0,13.231,2.656,18.042,7.484c4.834,4.834,7.491,11.264,7.479,18.096c-0.012,6.809-2.668,13.197-7.49,17.989
				C420.294,125.883,413.889,128.541,407.063,128.541z M407.063,85.392c-4.716,0-9.146,1.839-12.48,5.172
				c-6.86,6.885-6.86,18.065-0.005,24.91c6.672,6.667,18.291,6.678,24.939,0.006c3.334-3.316,5.166-7.716,5.173-12.414
				c0.006-4.721-1.827-9.163-5.173-12.508C416.196,87.225,411.771,85.392,407.063,85.392z"/>
		</g>
		<g>
			<path fill="#FFFFFF" stroke="#FFFFFF" stroke-width="5" stroke-miterlimit="10" d="M316.861,201.529
				c-0.978,0-1.963-0.362-2.722-1.091c-0.818-0.777-1.228-1.821-1.228-2.859c0-0.979,0.368-1.963,1.091-2.723l90.212-94.559
				c1.507-1.589,4.016-1.643,5.581-0.137c0.819,0.777,1.228,1.821,1.228,2.859c0,0.979-0.368,1.963-1.091,2.723l-90.212,94.559
				C318.944,201.119,317.9,201.529,316.861,201.529z"/>
		</g>
		<g>
			<path fill="#FFFFFF" stroke="#FFFFFF" stroke-width="5" stroke-miterlimit="10" d="M469.972,280.353
				c-14.067,0-25.52-11.452-25.52-25.528c0-14.068,11.452-25.515,25.52-25.515c14.059,0,25.493,11.447,25.493,25.515
				C495.465,268.9,484.03,280.353,469.972,280.353z M469.972,237.21c-9.715,0-17.62,7.9-17.62,17.615
				c0,9.722,7.905,17.627,17.62,17.627c9.704,0,17.593-7.905,17.593-17.627C487.564,245.11,479.676,237.21,469.972,237.21z"/>
		</g>
		<g>
			<path fill="#FFFFFF" stroke="#FFFFFF" stroke-width="5" stroke-miterlimit="10" d="M469.972,258.775h-70.395
				c-2.183,0-3.95-1.768-3.95-3.951c0-2.182,1.768-3.95,3.95-3.95h70.395c2.185,0,3.951,1.768,3.951,3.95
				C473.923,257.008,472.156,258.775,469.972,258.775z"/>
		</g>
		<g>
			<path fill="#FFFFFF" stroke="#FFFFFF" stroke-width="5" stroke-miterlimit="10" d="M407.079,432.219
				c-6.813,0-13.226-2.658-18.048-7.48c-9.929-9.97-9.929-26.173-0.005-36.131c4.839-4.806,11.244-7.443,18.053-7.443
				c6.81,0,13.209,2.638,18.019,7.437c4.841,4.822,7.51,11.239,7.51,18.06c0,6.833-2.669,13.251-7.51,18.078
				C420.294,429.561,413.895,432.219,407.079,432.219z M407.079,389.058c-4.709,0-9.14,1.826-12.479,5.137
				c-6.844,6.867-6.844,18.078,0.018,24.964c6.655,6.648,18.257,6.673,24.898,0c3.352-3.346,5.196-7.775,5.196-12.491
				s-1.845-9.146-5.189-12.479C416.202,390.879,411.783,389.058,407.079,389.058z"/>
		</g>
		<g>
			<path fill="#FFFFFF" stroke="#FFFFFF" stroke-width="5" stroke-miterlimit="10" d="M407.104,410.641
				c-1.009,0-2.023-0.385-2.795-1.156l-80.557-80.551c-0.77-0.771-1.156-1.785-1.156-2.793c0-1.009,0.387-2.023,1.156-2.793
				c1.543-1.543,4.046-1.543,5.589,0l80.556,80.549c0.771,0.771,1.156,1.786,1.156,2.794c0,1.009-0.386,2.022-1.156,2.794
				C409.126,410.256,408.112,410.641,407.104,410.641z"/>
		</g>
		<g>
			<path fill="#FFFFFF" stroke="#FFFFFF" stroke-width="5" stroke-miterlimit="10" d="M255.256,495.094
				c-6.821,0-13.232-2.658-18.054-7.485c-4.822-4.822-7.479-11.228-7.473-18.041c0-14.069,11.453-25.522,25.527-25.522
				c14.068,0,25.522,11.453,25.522,25.526C280.778,483.64,269.324,495.094,255.256,495.094z M255.256,451.944
				c-9.721,0-17.627,7.905-17.627,17.627c-0.006,4.704,1.827,9.129,5.154,12.455c3.333,3.333,7.764,5.167,12.473,5.167
				c9.715,0,17.621-7.907,17.621-17.622C272.877,459.85,264.971,451.944,255.256,451.944z"/>
		</g>
		<g>
			<path fill="#FFFFFF" stroke="#FFFFFF" stroke-width="5" stroke-miterlimit="10" d="M255.256,473.521
				c-2.182,0-3.95-1.767-3.95-3.95V325.927c0-2.183,1.769-3.949,3.95-3.949c2.183,0,3.95,1.767,3.95,3.949v143.645
				C259.206,471.755,257.438,473.521,255.256,473.521z"/>
		</g>
		<g>
			<path fill="#FFFFFF" stroke="#FFFFFF" stroke-width="5" stroke-miterlimit="10" d="M103.426,432.219
				c-6.808,0-13.22-2.658-18.048-7.48c-4.834-4.839-7.491-11.274-7.479-18.106c0.012-6.81,2.669-13.197,7.491-17.983
				c4.816-4.815,11.228-7.473,18.036-7.473c6.815,0,13.227,2.657,18.054,7.479c9.935,9.911,9.941,26.097,0.007,36.079
				C116.652,429.561,110.241,432.219,103.426,432.219z M103.426,389.069c-4.703,0-9.127,1.839-12.461,5.172
				c-3.333,3.303-5.16,7.705-5.172,12.402c-0.006,4.721,1.827,9.169,5.172,12.515c6.672,6.66,18.268,6.654,24.929-0.007
				c6.862-6.886,6.867-18.065,0.006-24.91C112.56,390.908,108.135,389.069,103.426,389.069z"/>
		</g>
		<g>
			<path fill="#FFFFFF" stroke="#FFFFFF" stroke-width="5" stroke-miterlimit="10" d="M103.42,410.641
				c-1.009,0-2.022-0.385-2.793-1.156s-1.157-1.785-1.157-2.794c0-1.008,0.386-2.022,1.157-2.794l80.497-80.496
				c1.542-1.543,4.044-1.543,5.587,0c0.771,0.771,1.156,1.785,1.156,2.793c0,1.01-0.385,2.023-1.156,2.793l-80.497,80.498
				C105.443,410.256,104.429,410.641,103.42,410.641z"/>
		</g>
		<g>
			<path fill="#FFFFFF" stroke="#FFFFFF" stroke-width="5" stroke-miterlimit="10" d="M40.539,280.353
				c-14.063,0-25.51-11.423-25.51-25.462c0-14.075,11.399-25.527,25.409-25.527c14.169,0,25.622,11.453,25.622,25.527
				C66.06,268.93,54.607,280.353,40.539,280.353z M40.539,237.263c-9.757,0-17.61,7.907-17.61,17.627
				c0,9.686,7.9,17.562,17.61,17.562c9.715,0,17.621-7.876,17.621-17.562C58.16,245.17,50.254,237.263,40.539,237.263z"/>
		</g>
		<g>
			<path fill="#FFFFFF" stroke="#FFFFFF" stroke-width="5" stroke-miterlimit="10" d="M128.236,258.841H40.539
				c-2.183,0-3.95-1.768-3.95-3.95c0-2.183,1.768-3.95,3.95-3.95h87.697c2.183,0,3.95,1.767,3.95,3.95
				C132.186,257.073,130.419,258.841,128.236,258.841z"/>
		</g>
		<g>
			<path fill="#FFFFFF" stroke="#FFFFFF" stroke-width="5" stroke-miterlimit="10" d="M103.426,128.541
				c-6.814,0-13.22-2.658-18.048-7.479c-4.81-4.786-7.467-11.174-7.479-17.983c-0.012-6.833,2.645-13.262,7.479-18.096
				c4.828-4.828,11.234-7.484,18.048-7.484c6.815,0,13.221,2.656,18.042,7.484c4.816,4.828,7.467,11.24,7.467,18.055
				c0,6.82-2.657,13.226-7.474,18.024C116.646,125.883,110.241,128.541,103.426,128.541z M103.426,85.392
				c-4.703,0-9.127,1.839-12.461,5.172c-3.345,3.339-5.178,7.781-5.172,12.502c0.006,4.698,1.839,9.098,5.161,12.402
				c6.689,6.678,18.273,6.667,24.928,0.012c3.328-3.321,5.16-7.734,5.16-12.443c0-4.709-1.832-9.14-5.16-12.479
				C112.554,87.231,108.129,85.392,103.426,85.392z"/>
		</g>
		<g>
			<path fill="#FFFFFF" stroke="#FFFFFF" stroke-width="5" stroke-miterlimit="10" d="M183.3,186.879
				c-1.008,0-2.022-0.386-2.793-1.156l-79.879-79.91c-0.771-0.771-1.157-1.785-1.157-2.793s0.386-2.022,1.157-2.793
				c1.542-1.542,4.045-1.542,5.587,0l79.88,79.91c0.771,0.771,1.156,1.786,1.156,2.794c0,1.008-0.385,2.022-1.156,2.793
				C185.323,186.493,184.308,186.879,183.3,186.879z"/>
		</g>
		<g>
			<path fill="#FFFFFF" stroke="#FFFFFF" stroke-width="5" stroke-miterlimit="10" d="M167.203,330.726
				c-27.105,0-49.252-21.245-50.409-48.368c-0.889-21.074,11.382-40.367,30.711-48.582c5.469-14.649,16.251-27.021,30.005-34.453
				c-0.374-16.874,5.688-32.971,17.152-45.438c11.762-12.794,27.805-20.243,45.159-20.96c34.721-1.459,63.783,24.258,67.425,57.935
				c20.314,3.125,36.951,18.666,41.54,38.652c2.782-0.617,5.707-1.008,8.731-1.167c0.759-0.03,1.483-0.047,2.194-0.047
				c27.093,0,49.233,21.221,50.408,48.314c1.168,27.805-20.485,51.381-48.267,52.556c-16.363,0.693-34.026,1.014-55.592,1.014
				c-13.707,0-27.432-0.124-41.144-0.254c-13.66-0.126-27.313-0.25-40.925-0.25c-21.322,0-38.748,0.313-54.839,1.002
				C168.639,330.709,167.915,330.726,167.203,330.726z M242.611,140.759c-0.813,0-1.638,0.018-2.456,0.053
				c-15.254,0.635-29.347,7.171-39.679,18.416c-10.337,11.24-15.675,25.836-15.036,41.097l0.048,1.21
				c0.065,1.559-0.806,3.013-2.212,3.701c-13.522,6.607-24.063,18.564-28.914,32.811c-0.38,1.109-1.229,1.993-2.325,2.414
				c-17.135,6.565-28.125,23.268-27.354,41.565c1.008,23.486,20.687,41.742,44.34,40.765c16.204-0.688,33.736-1.016,55.171-1.016
				c13.636,0,27.313,0.132,41.001,0.256c13.683,0.131,27.384,0.254,41.067,0.254c21.445,0,39.008-0.319,55.26-1.007
				c23.434-0.99,41.695-20.878,40.71-44.329c-1.013-23.458-20.563-41.536-44.341-40.717c-3.913,0.202-7.621,0.866-10.984,1.969
				c-1.114,0.368-2.324,0.214-3.32-0.409c-0.997-0.623-1.661-1.649-1.815-2.812c-2.669-19.566-18.872-34.98-38.522-36.654
				c-1.957-0.165-3.499-1.743-3.612-3.707C297.906,164.418,272.859,140.759,242.611,140.759z"/>
		</g>
		<g>
			<path fill="#FFFFFF" stroke="#FFFFFF" stroke-width="5" stroke-miterlimit="10" d="M327.705,254.837
				c-2.183,0-3.952-1.767-3.952-3.95c0-2.183,1.77-3.95,3.952-3.95c7.732,0,14.026-5.605,14.026-12.491
				c0-2.183,1.768-3.95,3.95-3.95c2.182,0,3.949,1.767,3.949,3.95C349.631,245.691,339.792,254.837,327.705,254.837z"/>
		</g>
	</g>
</g>
</svg>
