<?xml version="1.0" encoding="utf-8"?>
<!-- Generator: Adobe Illustrator 16.0.0, SVG Export Plug-In . SVG Version: 6.00 Build 0)  -->
<!DOCTYPE svg PUBLIC "-//W3C//DTD SVG 1.1//EN" "http://www.w3.org/Graphics/SVG/1.1/DTD/svg11.dtd">
<svg version="1.1" id="Layer_1" xmlns="http://www.w3.org/2000/svg" xmlns:xlink="http://www.w3.org/1999/xlink" x="0px" y="0px"
	 width="512px" height="512px" viewBox="0 0 512 512" enable-background="new 0 0 512 512" xml:space="preserve">
<g>
	<g>
		<g>
			<g>
				<path fill="#FFFFFF" stroke="#FFFFFF" stroke-width="5" stroke-miterlimit="10" d="M206.102,483.616h-21.267
					c-1.834,0-3.395-1.345-3.668-3.161l-5.77-38.336c-6.06-1.07-12.03-2.659-17.822-4.739l-24.16,30.293
					c-1.143,1.433-3.167,1.816-4.75,0.903l-18.424-10.608c-1.594-0.92-2.274-2.866-1.6-4.577l14.204-36.106
					c-4.705-3.986-9.07-8.351-13.017-13.022l-36.123,14.159c-1.701,0.675-3.646-0.005-4.566-1.6l-10.653-18.418
					c-0.92-1.589-0.535-3.617,0.903-4.761l30.336-24.121c-2.057-5.714-3.657-11.685-4.771-17.806l-38.348-5.77
					c-1.817-0.272-3.161-1.834-3.161-3.668V320.95c0-1.84,1.349-3.4,3.167-3.668l38.342-5.726
					c1.109-6.099,2.709-12.063,4.771-17.805l-30.342-24.165c-1.438-1.148-1.818-3.172-0.898-4.762l10.653-18.418
					c0.92-1.595,2.871-2.275,4.571-1.595l36.106,14.204c3.975-4.727,8.339-9.092,13.022-13.027l-14.198-36.112
					c-0.675-1.711,0.005-3.652,1.594-4.571l18.424-10.647c1.589-0.925,3.612-0.535,4.761,0.897l24.154,30.342
					c5.753-2.074,11.724-3.674,17.822-4.783l5.77-38.347c0.273-1.817,1.834-3.161,3.668-3.161h21.267
					c1.834,0,3.394,1.344,3.668,3.161l5.77,38.347c6.087,1.104,12.063,2.709,17.816,4.783l24.121-30.336
					c1.143-1.444,3.184-1.834,4.761-0.903l18.419,10.647c1.588,0.914,2.268,2.86,1.6,4.565l-14.165,36.123
					c4.749,4.003,9.12,8.368,13.039,13.022l36.095-14.204c1.7-0.686,3.657,0,4.576,1.6l10.609,18.418
					c0.914,1.589,0.529,3.607-0.903,4.75l-30.298,24.182c2.096,5.882,3.695,11.852,4.789,17.801l38.285,5.774
					c1.818,0.272,3.161,1.834,3.161,3.668v21.272c0,1.834-1.343,3.396-3.161,3.668l-38.291,5.765
					c-1.093,5.976-2.698,11.946-4.783,17.805l30.298,24.127c1.433,1.144,1.817,3.166,0.903,4.755l-10.609,18.418
					c-0.919,1.595-2.881,2.27-4.57,1.605l-36.106-14.159c-3.892,4.594-8.262,8.953-13.038,13.017l14.17,36.117
					c0.668,1.712-0.012,3.652-1.605,4.572l-18.418,10.608c-1.578,0.919-3.602,0.529-4.756-0.903l-24.121-30.293
					c-5.792,2.08-11.763,3.669-17.816,4.739l-5.77,38.336C209.496,482.271,207.936,483.616,206.102,483.616z M188.029,476.189
					h14.879l5.697-37.845c0.24-1.611,1.505-2.876,3.117-3.116c7.341-1.109,14.583-3.032,21.518-5.725
					c1.521-0.568,3.238-0.123,4.248,1.148l23.808,29.896l12.883-7.419l-13.98-35.639c-0.586-1.505-0.14-3.217,1.115-4.236
					c5.936-4.816,11.244-10.118,15.77-15.754c1.016-1.266,2.749-1.723,4.248-1.132l35.633,13.976l7.42-12.883l-29.896-23.81
					c-1.26-1.008-1.729-2.72-1.154-4.225c2.703-7.074,4.649-14.327,5.793-21.563c0.25-1.6,1.51-2.849,3.109-3.088l37.785-5.691
					V324.2l-37.785-5.703c-1.605-0.239-2.865-1.494-3.115-3.094c-1.127-7.186-3.072-14.438-5.787-21.551
					c-0.574-1.506-0.111-3.217,1.154-4.221l29.902-23.858l-7.42-12.884l-35.633,14.021c-1.517,0.619-3.244,0.14-4.259-1.137
					c-4.565-5.72-9.862-11.015-15.743-15.732c-1.271-1.014-1.729-2.737-1.137-4.247l13.98-35.661l-12.883-7.447l-23.808,29.941
					c-1.01,1.271-2.749,1.745-4.248,1.148c-6.885-2.675-14.132-4.621-21.54-5.78c-1.6-0.251-2.854-1.511-3.094-3.116l-5.697-37.846
					h-14.879l-5.697,37.846c-0.24,1.6-1.494,2.865-3.094,3.116c-7.419,1.159-14.667,3.11-21.54,5.78
					c-1.489,0.603-3.233,0.134-4.248-1.142l-23.842-29.953l-12.894,7.453l14.02,35.655c0.597,1.522,0.134,3.25-1.142,4.265
					c-5.765,4.588-11.055,9.877-15.715,15.72c-1.015,1.276-2.731,1.756-4.258,1.137l-35.655-14.025l-7.454,12.889l29.953,23.853
					c1.271,1.016,1.733,2.738,1.143,4.248c-2.665,6.857-4.61,14.104-5.781,21.535c-0.25,1.6-1.511,2.849-3.116,3.088l-37.834,5.652
					v14.936l37.84,5.691c1.6,0.239,2.86,1.488,3.11,3.088c1.188,7.475,3.133,14.723,5.781,21.54
					c0.591,1.517,0.128,3.233-1.148,4.247l-29.941,23.81l7.453,12.889l35.655-13.981c1.505-0.591,3.228-0.134,4.248,1.132
					c4.627,5.764,9.923,11.06,15.742,15.748c1.26,1.015,1.717,2.737,1.121,4.248l-14.014,35.638l12.883,7.42l23.854-29.901
					c1.015-1.277,2.726-1.723,4.242-1.148c6.924,2.687,14.165,4.615,21.518,5.725c1.61,0.245,2.876,1.505,3.116,3.116
					L188.029,476.189z M195.449,389.79c-32.048,0-58.126-26.1-58.126-58.176c0-32.054,26.078-58.137,58.126-58.137
					c32.071,0,58.165,26.083,58.165,58.137C253.613,363.69,227.52,389.79,195.449,389.79z M195.449,280.902
					c-27.956,0-50.701,22.75-50.701,50.712c0,27.984,22.745,50.751,50.701,50.751c27.979,0,50.74-22.767,50.74-50.751
					C246.188,303.652,223.427,280.902,195.449,280.902z"/>
			</g>
		</g>
		<g>
			<path fill="#FFFFFF" stroke="#FFFFFF" stroke-width="5" stroke-miterlimit="10" d="M195.449,258.755
				c-5.117,0-9.282-4.164-9.282-9.282c0-5.112,4.165-9.27,9.282-9.27c5.112,0,9.276,4.158,9.276,9.27
				C204.725,254.591,200.561,258.755,195.449,258.755z M195.449,247.628c-0.992,0-1.856,0.858-1.856,1.845
				c0,1.009,0.848,1.856,1.856,1.856c1.037,0,1.851-0.813,1.851-1.856C197.299,248.47,196.452,247.628,195.449,247.628z"/>
		</g>
		<g>
			<path fill="#FFFFFF" stroke="#FFFFFF" stroke-width="5" stroke-miterlimit="10" d="M236.494,269.776
				c-1.622,0-3.222-0.43-4.626-1.244c-2.152-1.242-3.68-3.256-4.31-5.658c-0.63-2.396-0.29-4.895,0.953-7.04
				c2.47-4.242,8.356-5.831,12.649-3.339c2.107,1.176,3.662,3.166,4.32,5.574c0.658,2.408,0.329,4.917-0.926,7.068
				C242.905,267.992,239.811,269.776,236.494,269.776z M236.5,258.654c-0.652,0-1.237,0.335-1.566,0.903
				c-0.256,0.44-0.323,0.947-0.195,1.433c0.072,0.278,0.279,0.792,0.847,1.12c0.858,0.502,2.046,0.162,2.553-0.702
				c0.334-0.574,0.256-1.114,0.184-1.388c-0.073-0.268-0.285-0.77-0.842-1.082C237.135,258.738,236.823,258.654,236.5,258.654z"/>
		</g>
		<g>
			<path fill="#FFFFFF" stroke="#FFFFFF" stroke-width="5" stroke-miterlimit="10" d="M266.586,299.839
				c-3.328,0-6.411-1.801-8.039-4.699c-1.215-2.112-1.544-4.615-0.892-7.013c0.642-2.392,2.168-4.376,4.298-5.597
				c4.265-2.459,10.213-0.875,12.671,3.384c1.231,2.118,1.567,4.604,0.931,6.996c-0.641,2.409-2.186,4.427-4.342,5.681
				C269.808,299.405,268.208,299.839,266.586,299.839z M266.603,288.707c-0.335,0-0.652,0.089-0.954,0.263
				c-0.551,0.317-0.758,0.818-0.83,1.086c-0.078,0.279-0.15,0.836,0.178,1.41c0.647,1.154,1.757,1.127,2.486,0.709
				c0.453-0.263,0.77-0.676,0.898-1.166c0.072-0.272,0.145-0.813-0.178-1.377C267.861,289.048,267.271,288.707,266.603,288.707z"/>
		</g>
		<g>
			<path fill="#FFFFFF" stroke="#FFFFFF" stroke-width="5" stroke-miterlimit="10" d="M277.584,340.896
				c-5.117,0-9.281-4.164-9.281-9.281c0-5.111,4.164-9.271,9.281-9.271c5.112,0,9.275,4.159,9.275,9.271
				C286.859,336.731,282.696,340.896,277.584,340.896z M277.584,329.769c-1.042,0-1.855,0.809-1.855,1.846
				c0,1.025,0.83,1.856,1.855,1.856c1.037,0,1.851-0.813,1.851-1.856C279.435,330.577,278.621,329.769,277.584,329.769z"/>
		</g>
		<g>
			<path fill="#FFFFFF" stroke="#FFFFFF" stroke-width="5" stroke-miterlimit="10" d="M266.568,381.975
				c-1.621,0-3.228-0.429-4.637-1.254c-4.404-2.564-5.91-8.251-3.362-12.671c2.374-4.226,8.317-5.876,12.644-3.367
				c2.117,1.188,3.674,3.178,4.326,5.58c0.657,2.402,0.328,4.912-0.926,7.063C272.969,380.186,269.886,381.975,266.568,381.975z
				 M266.547,370.848c-0.652,0-1.221,0.323-1.522,0.87c-0.529,0.914-0.228,2.084,0.642,2.592c0.875,0.496,2.035,0.162,2.525-0.696
				c0.34-0.585,0.262-1.126,0.189-1.399c-0.072-0.268-0.285-0.77-0.848-1.082C267.193,370.932,266.875,370.848,266.547,370.848z"/>
		</g>
		<g>
			<path fill="#FFFFFF" stroke="#FFFFFF" stroke-width="5" stroke-miterlimit="10" d="M236.544,412.039
				c-3.3,0-6.377-1.785-8.033-4.655c-2.559-4.398-1.059-10.073,3.345-12.638c4.32-2.509,10.247-0.897,12.705,3.361
				c1.237,2.124,1.572,4.616,0.937,7.008c-0.641,2.408-2.186,4.426-4.343,5.681C239.755,411.609,238.161,412.039,236.544,412.039z
				 M236.533,400.9c-0.334,0-0.652,0.089-0.948,0.262c-0.881,0.513-1.17,1.611-0.658,2.497c0.507,0.876,1.633,1.228,2.497,0.72
				c0.452-0.262,0.77-0.675,0.898-1.171c0.072-0.272,0.145-0.813-0.178-1.376C237.804,401.246,237.208,400.9,236.533,400.9z"/>
		</g>
		<g>
			<path fill="#FFFFFF" stroke="#FFFFFF" stroke-width="5" stroke-miterlimit="10" d="M195.449,423.031
				c-5.117,0-9.282-4.164-9.282-9.281c0-5.112,4.165-9.271,9.282-9.271c5.112,0,9.276,4.158,9.276,9.271
				C204.725,418.867,200.561,423.031,195.449,423.031z M195.449,411.904c-0.992,0-1.856,0.858-1.856,1.846
				c0,1.009,0.848,1.856,1.856,1.856c1.037,0,1.851-0.814,1.851-1.856C197.299,412.747,196.452,411.904,195.449,411.904z"/>
		</g>
		<g>
			<path fill="#FFFFFF" stroke="#FFFFFF" stroke-width="5" stroke-miterlimit="10" d="M154.359,412.039
				c-1.623,0-3.228-0.43-4.633-1.243c-2.141-1.243-3.668-3.239-4.298-5.631c-0.641-2.402-0.301-4.911,0.953-7.068
				c2.447-4.26,8.368-5.859,12.643-3.346c2.152,1.244,3.702,3.256,4.337,5.659c0.63,2.375,0.295,4.855-0.942,6.984
				C160.769,410.254,157.676,412.039,154.359,412.039z M154.37,400.9c-0.652,0-1.238,0.346-1.572,0.92
				c-0.257,0.445-0.329,0.959-0.201,1.438c0.073,0.278,0.279,0.785,0.853,1.115c0.859,0.501,2.051,0.161,2.553-0.703
				c0.313-0.54,0.273-1.031,0.19-1.354c-0.129-0.484-0.446-0.892-0.898-1.154C154.994,400.989,154.688,400.9,154.37,400.9z"/>
		</g>
		<g>
			<path fill="#FFFFFF" stroke="#FFFFFF" stroke-width="5" stroke-miterlimit="10" d="M124.351,381.975
				c-3.29,0-6.367-1.784-8.033-4.655c-1.26-2.168-1.589-4.688-0.931-7.096c0.646-2.386,2.191-4.359,4.336-5.568
				c4.142-2.387,10.191-0.875,12.643,3.395c2.554,4.432,1.031,10.123-3.4,12.682C127.567,381.546,125.967,381.975,124.351,381.975z
				 M124.345,370.848c-0.334,0-0.647,0.084-0.937,0.251c-0.591,0.334-0.792,0.814-0.864,1.076c-0.078,0.279-0.15,0.83,0.19,1.416
				c0.513,0.892,1.611,1.232,2.508,0.719c0.903-0.523,1.21-1.666,0.691-2.559C125.61,371.183,125.014,370.848,124.345,370.848z"/>
		</g>
		<g>
			<path fill="#FFFFFF" stroke="#FFFFFF" stroke-width="5" stroke-miterlimit="10" d="M113.308,340.896
				c-5.112,0-9.276-4.164-9.276-9.281c0-5.111,4.164-9.271,9.276-9.271c5.117,0,9.282,4.159,9.282,9.271
				C122.589,336.731,118.425,340.896,113.308,340.896z M113.308,329.769c-1.003,0-1.851,0.842-1.851,1.846
				c0,1.009,0.847,1.856,1.851,1.856c1.042,0,1.856-0.813,1.856-1.856C115.164,330.577,114.35,329.769,113.308,329.769z"/>
		</g>
		<g>
			<path fill="#FFFFFF" stroke="#FFFFFF" stroke-width="5" stroke-miterlimit="10" d="M124.301,299.839
				c-1.623,0-3.228-0.434-4.633-1.254c-2.129-1.237-3.663-3.238-4.298-5.637c-0.636-2.396-0.301-4.898,0.953-7.051
				c2.47-4.254,8.362-5.82,12.638-3.361c2.124,1.203,3.668,3.188,4.314,5.58c0.658,2.402,0.329,4.911-0.914,7.063
				C130.711,298.05,127.623,299.839,124.301,299.839z M124.312,288.707c-0.652,0-1.237,0.346-1.577,0.925
				c-0.251,0.43-0.318,0.938-0.19,1.416c0.073,0.273,0.279,0.787,0.858,1.121c0.898,0.529,2.041,0.162,2.531-0.697
				c0.334-0.58,0.256-1.126,0.184-1.404c-0.072-0.273-0.278-0.77-0.836-1.088C124.958,288.796,124.641,288.707,124.312,288.707z"/>
		</g>
		<g>
			<path fill="#FFFFFF" stroke="#FFFFFF" stroke-width="5" stroke-miterlimit="10" d="M154.403,269.776
				c-3.294,0-6.371-1.784-8.027-4.655c-1.26-2.157-1.594-4.683-0.937-7.103c0.652-2.386,2.191-4.359,4.337-5.557
				c4.125-2.403,10.179-0.876,12.648,3.372c1.238,2.14,1.572,4.638,0.931,7.035c-0.641,2.407-2.191,4.421-4.354,5.669
				C157.62,269.347,156.02,269.776,154.403,269.776z M154.403,258.654c-0.339,0-0.657,0.084-0.953,0.257
				c-0.58,0.323-0.78,0.803-0.847,1.059c-0.078,0.279-0.156,0.836,0.19,1.422c0.513,0.893,1.65,1.227,2.492,0.725
				c0.457-0.262,0.769-0.675,0.903-1.165c0.072-0.278,0.15-0.825-0.185-1.394C155.674,258.989,155.078,258.654,154.403,258.654z"/>
		</g>
		<g>
			<g>
				<path fill="#FFFFFF" stroke="#FFFFFF" stroke-width="5" stroke-miterlimit="10" d="M368.098,233.234h-13.941
					c-1.834,0-3.395-1.343-3.668-3.161l-3.623-24.149c-3.4-0.663-6.768-1.561-10.057-2.687l-15.174,19.099
					c-1.143,1.438-3.172,1.823-4.756,0.908l-12.074-6.962c-1.594-0.92-2.274-2.865-1.6-4.577l8.941-22.716
					c-2.564-2.241-5.023-4.705-7.348-7.359l-22.771,8.936c-1.695,0.68-3.657-0.011-4.572-1.611l-6.917-12.058
					c-0.914-1.589-0.53-3.606,0.903-4.744l19.07-15.202c-1.121-3.239-2.023-6.617-2.697-10.084l-24.105-3.629
					c-1.817-0.273-3.16-1.834-3.16-3.668V125.69c0-1.834,1.343-3.395,3.16-3.668l24.099-3.629c0.675-3.479,1.578-6.851,2.698-10.084
					l-19.064-15.202c-1.434-1.143-1.817-3.161-0.903-4.75l6.917-12.019c0.915-1.595,2.866-2.28,4.572-1.605l22.766,8.931
					c2.309-2.659,4.772-5.135,7.354-7.392l-8.941-22.716c-0.675-1.711,0.006-3.657,1.6-4.577l12.074-6.962
					c1.59-0.909,3.618-0.53,4.756,0.909l15.174,19.093c3.271-1.121,6.639-2.018,10.057-2.682l3.623-24.149
					c0.273-1.817,1.834-3.161,3.668-3.161h13.941c1.84,0,3.396,1.344,3.668,3.161l3.618,24.149c3.417,0.664,6.79,1.561,10.067,2.682
					l15.23-19.099c1.143-1.433,3.166-1.812,4.76-0.897l12.014,6.962c1.584,0.92,2.264,2.86,1.59,4.572l-8.938,22.716
					c2.582,2.257,5.039,4.733,7.354,7.392l22.721-8.931c1.695-0.669,3.646,0.011,4.566,1.6l6.957,12.019
					c0.92,1.589,0.541,3.612-0.896,4.761l-19.078,15.19c1.127,3.228,2.031,6.601,2.711,10.09l24.1,3.629
					c1.816,0.273,3.16,1.834,3.16,3.668v13.881c0,1.834-1.344,3.395-3.16,3.668l-24.105,3.629c-0.674,3.478-1.584,6.856-2.709,10.09
					l19.082,15.19c1.438,1.148,1.816,3.172,0.896,4.766l-6.957,12.014c-0.92,1.578-2.848,2.257-4.566,1.594l-22.732-8.896
					c-2.318,2.659-4.777,5.118-7.342,7.364l8.938,22.716c0.674,1.711-0.006,3.651-1.59,4.571l-12.014,6.962
					c-1.594,0.914-3.611,0.535-4.76-0.897l-15.23-19.104c-3.299,1.126-6.666,2.024-10.067,2.687l-3.618,24.149
					C371.493,231.891,369.938,233.234,368.098,233.234z M357.351,225.809h7.554l3.539-23.625c0.24-1.601,1.488-2.86,3.089-3.111
					c4.694-0.747,9.354-1.984,13.841-3.695c1.506-0.569,3.211-0.111,4.221,1.154l14.895,18.68l6.484-3.757l-8.742-22.226
					c-0.596-1.505-0.145-3.222,1.115-4.242c3.596-2.921,7.002-6.328,10.119-10.134c1.02-1.243,2.721-1.701,4.225-1.104l22.232,8.703
					l3.756-6.489l-18.674-14.873c-1.277-1.021-1.74-2.749-1.137-4.265c1.693-4.303,2.947-8.952,3.717-13.808
					c0.252-1.6,1.512-2.849,3.111-3.089l23.58-3.551v-7.492l-23.58-3.551c-1.6-0.24-2.859-1.488-3.111-3.088
					c-0.77-4.872-2.023-9.516-3.717-13.803c-0.604-1.516-0.141-3.25,1.137-4.27l18.674-14.873l-3.752-6.488l-22.236,8.735
					c-1.494,0.58-3.217,0.14-4.236-1.115c-3.082-3.802-6.484-7.219-10.107-10.157c-1.26-1.02-1.711-2.737-1.115-4.242l8.742-22.226
					l-6.484-3.757l-14.895,18.675c-1.01,1.271-2.727,1.711-4.221,1.154c-4.447-1.701-9.103-2.938-13.841-3.69
					c-1.601-0.251-2.849-1.511-3.089-3.11l-3.539-23.625h-7.554l-3.546,23.625c-0.239,1.6-1.488,2.859-3.088,3.11
					c-4.744,0.752-9.398,1.99-13.83,3.69c-1.527,0.557-3.223,0.105-4.231-1.16l-14.839-18.674l-6.539,3.769l8.746,22.22
					c0.596,1.505,0.145,3.222-1.115,4.242c-3.629,2.938-7.029,6.355-10.106,10.151c-1.021,1.255-2.749,1.695-4.237,1.121
					l-22.27-8.735l-3.734,6.483l18.668,14.884c1.271,1.014,1.734,2.737,1.143,4.253c-1.694,4.314-2.938,8.958-3.707,13.813
					c-0.25,1.6-1.51,2.849-3.109,3.088l-23.581,3.551v7.492l23.581,3.551c1.6,0.24,2.859,1.489,3.109,3.089
					c0.77,4.838,2.013,9.487,3.707,13.819c0.592,1.516,0.129,3.238-1.143,4.248l-18.668,14.884l3.74,6.522l22.264-8.741
					c1.488-0.585,3.201-0.145,4.227,1.11c3.11,3.801,6.516,7.208,10.117,10.129c1.26,1.02,1.711,2.737,1.115,4.242l-8.746,22.22
					l6.539,3.768l14.839-18.68c1.015-1.266,2.737-1.717,4.226-1.16c4.477,1.706,9.137,2.949,13.836,3.695
					c1.6,0.251,2.849,1.511,3.088,3.111L357.351,225.809z M361.124,171.898c-21.657,0-39.278-17.61-39.278-39.251
					c0-21.663,17.621-39.284,39.278-39.284c21.663,0,39.284,17.621,39.284,39.284C400.408,154.288,382.787,171.898,361.124,171.898z
					 M361.124,100.789c-17.565,0-31.853,14.293-31.853,31.858c0,17.549,14.287,31.826,31.853,31.826s31.858-14.277,31.858-31.826
					C392.982,115.082,378.689,100.789,361.124,100.789z"/>
			</g>
		</g>
	</g>
</g>
</svg>
