<?xml version="1.0" encoding="utf-8"?>
<!-- Generator: Adobe Illustrator 16.0.0, SVG Export Plug-In . SVG Version: 6.00 Build 0)  -->
<!DOCTYPE svg PUBLIC "-//W3C//DTD SVG 1.1//EN" "http://www.w3.org/Graphics/SVG/1.1/DTD/svg11.dtd">
<svg version="1.1" id="Layer_1" xmlns="http://www.w3.org/2000/svg" xmlns:xlink="http://www.w3.org/1999/xlink" x="0px" y="0px"
	 width="512px" height="512px" viewBox="0 0 512 512" enable-background="new 0 0 512 512" xml:space="preserve">
<g>
	<g>
		<g>
			<path fill="#FFFFFF" stroke="#FFFFFF" stroke-width="5" stroke-miterlimit="10" d="M339.904,316.953H178.558
				c-0.712,0-1.409-0.193-2.018-0.564c-48.148-28.951-78.059-81.796-78.059-137.906c0-88.626,72.103-160.735,160.732-160.735
				c88.632,0,160.741,72.109,160.741,160.735c0,56.98-29.175,108.537-78.033,137.906C341.31,316.76,340.615,316.953,339.904,316.953
				z M179.651,309.119H338.81c45.928-28.035,73.31-76.792,73.31-130.637c0-84.309-68.592-152.9-152.906-152.9
				c-84.312,0-152.903,68.592-152.903,152.9C106.31,232.31,133.706,281.066,179.651,309.119z"/>
		</g>
		<g>
			<path fill="#FFFFFF" stroke="#FFFFFF" stroke-width="5" stroke-miterlimit="10" d="M319.669,452.877H198.804
				c-2.165,0-3.917-1.752-3.917-3.918V313.035c0-2.164,1.752-3.916,3.917-3.916h120.865c2.165,0,3.918,1.752,3.918,3.916v135.924
				C323.587,451.125,321.834,452.877,319.669,452.877z M202.721,445.043h113.031v-128.09H202.721V445.043z"/>
		</g>
		<g>
			<path fill="#FFFFFF" stroke="#FFFFFF" stroke-width="5" stroke-miterlimit="10" d="M373.262,316.953H145.217
				c-2.162,0-3.914-1.752-3.914-3.918c0-2.164,1.752-3.916,3.914-3.916h228.044c2.165,0,3.918,1.752,3.918,3.916
				C377.18,315.201,375.427,316.953,373.262,316.953z"/>
		</g>
		<g>
			<path fill="#FFFFFF" stroke="#FFFFFF" stroke-width="5" stroke-miterlimit="10" d="M343.021,366.527h-167.6
				c-2.162,0-3.915-1.752-3.915-3.916c0-2.166,1.753-3.918,3.915-3.918h167.6c2.165,0,3.917,1.752,3.917,3.918
				C346.938,364.775,345.187,366.527,343.021,366.527z"/>
		</g>
		<g>
			<path fill="#FFFFFF" stroke="#FFFFFF" stroke-width="5" stroke-miterlimit="10" d="M343.021,404.662h-167.6
				c-2.162,0-3.915-1.754-3.915-3.918s1.753-3.918,3.915-3.918h167.6c2.165,0,3.917,1.754,3.917,3.918
				S345.187,404.662,343.021,404.662z"/>
		</g>
		<g>
			<path fill="#FFFFFF" stroke="#FFFFFF" stroke-width="5" stroke-miterlimit="10" d="M259.213,494.252
				c-20.399,0-36.993-16.617-36.993-37.033c0-3.146,0.4-6.26,1.182-9.254c0.453-1.717,2.006-2.922,3.788-2.922h64.062
				c1.783,0,3.336,1.205,3.789,2.922c0.776,2.967,1.171,6.076,1.171,9.254C296.212,477.635,279.612,494.252,259.213,494.252z
				 M230.379,452.877c-0.211,1.436-0.324,2.9-0.324,4.342c0,16.098,13.076,29.199,29.158,29.199
				c16.082,0,29.164-13.102,29.164-29.199c0-1.477-0.105-2.924-0.313-4.342H230.379z"/>
		</g>
		<g>
			<path fill="#FFFFFF" stroke="#FFFFFF" stroke-width="5" stroke-miterlimit="10" d="M237.696,283.479
				c-0.335,0-0.671-0.047-1.012-0.135l-15.935-4.254c-1.871-0.5-3.094-2.293-2.876-4.217l3.276-29.164
				c-3.959-1.9-7.729-4.088-11.265-6.524l-23.599,17.47c-1.547,1.159-3.718,0.995-5.106-0.382l-11.682-11.729
				c-1.368-1.37-1.526-3.535-0.374-5.094l17.45-23.598c-2.423-3.571-4.594-7.335-6.479-11.241l-29.172,3.335
				c-1.929,0.212-3.723-1.006-4.226-2.876l-4.282-15.994c-0.5-1.87,0.444-3.829,2.221-4.6l26.899-11.699
				c-0.306-4.289-0.303-8.647,0.006-13.018l-26.905-11.699c-1.78-0.771-2.723-2.729-2.221-4.606l3.714-13.834
				c0.503-1.871,2.265-3.117,4.227-2.871l29.143,3.335c1.9-3.94,4.076-7.723,6.488-11.293l-17.432-23.605
				c-1.15-1.559-0.988-3.723,0.382-5.094l11.685-11.682c1.377-1.376,3.553-1.536,5.1-0.376l23.599,17.458
				c3.547-2.441,7.317-4.624,11.258-6.512l-3.299-29.151c-0.218-1.923,0.999-3.718,2.87-4.224l15.964-4.306
				c1.864-0.506,3.834,0.441,4.605,2.224l11.7,26.905c4.288-0.33,8.64-0.323,13.023,0.006l11.717-26.917
				c0.776-1.77,2.747-2.705,4.606-2.217l15.951,4.306c1.871,0.506,3.088,2.3,2.871,4.224l-3.3,29.151
				c3.929,1.888,7.705,4.053,11.27,6.477l23.611-17.429c1.559-1.141,3.724-0.982,5.094,0.389l11.665,11.681
				c1.37,1.371,1.529,3.536,0.376,5.094l-17.446,23.6c2.481,3.647,4.658,7.429,6.511,11.293l29.17-3.335
				c1.905-0.218,3.735,1,4.229,2.882l4.246,15.994c0.501,1.87-0.446,3.824-2.223,4.594l-26.87,11.688
				c0.306,4.382,0.306,8.729-0.012,12.981l26.888,11.747c1.776,0.776,2.718,2.723,2.217,4.594l-3.67,13.835
				c-0.5,1.882-2.323,3.117-4.229,2.882l-29.163-3.335c-1.876,3.888-4.053,7.67-6.506,11.294l17.429,23.545
				c1.153,1.554,0.994,3.718-0.371,5.088l-11.669,11.729c-1.371,1.377-3.56,1.541-5.106,0.388l-23.593-17.482
				c-3.583,2.43-7.359,4.611-11.271,6.518l3.288,29.176c0.218,1.93-1.006,3.723-2.882,4.223l-15.952,4.254
				c-1.859,0.494-3.818-0.447-4.595-2.219l-11.723-26.887c-4.452,0.323-8.788,0.323-13,0.017l-11.717,26.87
				C240.649,282.578,239.22,283.479,237.696,283.479z M268.465,246.18c1.547,0,2.965,0.917,3.589,2.353l11.499,26.375l9.441-2.512
				l-3.224-28.623c-0.194-1.693,0.735-3.317,2.288-4.017c5.241-2.341,10.229-5.229,14.829-8.576c1.382-1.005,3.265-1,4.636,0.018
				l23.146,17.152l6.911-6.946l-17.104-23.105c-1.019-1.371-1.023-3.242-0.023-4.624c3.388-4.682,6.265-9.682,8.553-14.858
				c0.699-1.571,2.276-2.505,4.028-2.306l28.611,3.271l1.94-7.317l-26.398-11.529c-1.57-0.688-2.512-2.312-2.329-4.012
				c0.605-5.541,0.617-11.293,0.028-17.093c-0.17-1.694,0.771-3.305,2.336-3.982l26.363-11.464l-2.518-9.47l-28.634,3.271
				c-1.753,0.206-3.353-0.747-4.035-2.329c-2.224-5.111-5.094-10.094-8.535-14.817c-1.006-1.382-1-3.259,0.019-4.635l17.122-23.158
				l-6.899-6.912l-23.17,17.1c-1.37,1.005-3.253,1.017-4.636,0.011c-4.552-3.329-9.534-6.188-14.799-8.506
				c-1.57-0.688-2.506-2.317-2.312-4.023l3.241-28.622l-9.441-2.553l-11.5,26.417c-0.682,1.564-2.317,2.458-4.011,2.33
				c-5.741-0.625-11.517-0.63-17.082-0.006c-1.759,0.206-3.341-0.759-4.023-2.33l-11.481-26.41l-9.453,2.553l3.242,28.622
				c0.194,1.706-0.747,3.341-2.318,4.029c-5.271,2.306-10.229,5.176-14.747,8.529c-1.388,1.035-3.276,1.029-4.665,0.005
				l-23.176-17.146l-6.917,6.917l17.1,23.158c1.018,1.37,1.023,3.241,0.023,4.624c-3.317,4.57-6.188,9.564-8.541,14.852
				c-0.688,1.565-2.277,2.488-4.023,2.3l-28.599-3.271l-1.965,7.312l26.391,11.476c1.562,0.676,2.506,2.288,2.332,3.981
				c-0.585,5.783-0.585,11.553,0,17.153c0.177,1.7-0.768,3.318-2.332,3.994l-26.393,11.482l2.538,9.47l28.623-3.271
				c1.764-0.199,3.335,0.742,4.023,2.3c2.323,5.235,5.194,10.211,8.535,14.793c1.006,1.383,1,3.259-0.018,4.636l-17.129,23.164
				l6.923,6.946l23.176-17.152c1.394-1.035,3.289-1.03,4.671,0.005c4.477,3.341,9.435,6.211,14.741,8.547
				c1.57,0.688,2.506,2.318,2.312,4.018l-3.218,28.628l9.429,2.512l11.5-26.375c0.688-1.57,2.275-2.465,4.017-2.329
				c5.417,0.6,11.176,0.6,17.099,0C268.201,246.186,268.336,246.18,268.465,246.18z"/>
		</g>
		<g>
			<path fill="#FFFFFF" stroke="#FFFFFF" stroke-width="5" stroke-miterlimit="10" d="M259.213,228.51
				c-33.722,0-61.156-27.44-61.156-61.168c0-33.716,27.434-61.15,61.156-61.15c33.74,0,61.192,27.434,61.192,61.15
				C320.405,201.07,292.953,228.51,259.213,228.51z M259.213,114.026c-29.404,0-53.321,23.917-53.321,53.315
				c0,29.411,23.917,53.333,53.321,53.333c29.422,0,53.357-23.923,53.357-53.333C312.57,137.942,288.635,114.026,259.213,114.026z"
				/>
		</g>
		<g>
			<path fill="#FFFFFF" stroke="#FFFFFF" stroke-width="5" stroke-miterlimit="10" d="M259.213,228.51
				c-18.623,0-33.216-26.87-33.216-61.168c0-34.287,14.593-61.15,33.216-61.15c18.641,0,33.24,26.864,33.24,61.15
				C292.453,201.64,277.854,228.51,259.213,228.51z M259.213,114.026c-13.758,0-25.381,24.417-25.381,53.315
				c0,28.911,11.623,53.333,25.381,53.333c13.77,0,25.404-24.422,25.404-53.333C284.617,138.443,272.982,114.026,259.213,114.026z"
				/>
		</g>
		<g>
			<path fill="#FFFFFF" stroke="#FFFFFF" stroke-width="5" stroke-miterlimit="10" d="M316.487,171.259H201.974
				c-2.165,0-3.917-1.753-3.917-3.918c0-2.165,1.753-3.917,3.917-3.917h114.513c2.165,0,3.918,1.752,3.918,3.917
				C320.405,169.506,318.652,171.259,316.487,171.259z"/>
		</g>
		<g>
			<path fill="#FFFFFF" stroke="#FFFFFF" stroke-width="5" stroke-miterlimit="10" d="M259.213,228.51
				c-2.164,0-3.917-1.752-3.917-3.917V110.108c0-2.165,1.753-3.917,3.917-3.917s3.918,1.753,3.918,3.917v114.484
				C263.131,226.757,261.377,228.51,259.213,228.51z"/>
		</g>
		<g>
			<path fill="#FFFFFF" stroke="#FFFFFF" stroke-width="5" stroke-miterlimit="10" d="M259.348,145.496
				c-15.922,0-31.887-2.677-47.786-8.035c-2.047-0.694-3.146-2.912-2.458-4.964c0.694-2.042,2.888-3.135,4.965-2.459
				c30.122,10.158,60.504,10.165,90.296,0.006c2.047-0.688,4.276,0.395,4.971,2.441c0.699,2.047-0.395,4.271-2.441,4.97
				C291.158,142.813,275.277,145.496,259.348,145.496z"/>
		</g>
		<g>
			<path fill="#FFFFFF" stroke="#FFFFFF" stroke-width="5" stroke-miterlimit="10" d="M212.814,203.599
				c-1.635,0-3.165-1.036-3.711-2.671c-0.688-2.052,0.418-4.271,2.465-4.958c31.775-10.652,63.844-10.652,95.314,0.006
				c2.053,0.688,3.146,2.912,2.453,4.964c-0.694,2.047-2.912,3.147-4.965,2.447c-29.793-10.083-60.186-10.083-90.309,0.005
				C213.644,203.534,213.227,203.599,212.814,203.599z"/>
		</g>
	</g>
</g>
</svg>
