<?xml version="1.0" encoding="utf-8"?>
<!-- Generator: Adobe Illustrator 16.0.0, SVG Export Plug-In . SVG Version: 6.00 Build 0)  -->
<!DOCTYPE svg PUBLIC "-//W3C//DTD SVG 1.1//EN" "http://www.w3.org/Graphics/SVG/1.1/DTD/svg11.dtd">
<svg version="1.1" id="Layer_1" xmlns="http://www.w3.org/2000/svg" xmlns:xlink="http://www.w3.org/1999/xlink" x="0px" y="0px"
	 width="130px" height="40px" viewBox="0 0 130 40" enable-background="new 0 0 130 40" xml:space="preserve">
<g display="none">
	<g display="inline">
		<defs>
			<rect id="SVGID_1_" x="-2.563" y="-45.125" width="138.125" height="138.125"/>
		</defs>
		<clipPath id="SVGID_2_">
			<use xlink:href="#SVGID_1_"  overflow="visible"/>
		</clipPath>
		<g clip-path="url(#SVGID_2_)">
			<defs>
				<rect id="SVGID_3_" x="-2.563" y="-45.125" width="138.125" height="138.125"/>
			</defs>
			<clipPath id="SVGID_4_">
				<use xlink:href="#SVGID_3_"  overflow="visible"/>
			</clipPath>
			<path clip-path="url(#SVGID_4_)" fill="#243665" d="M53.587,15.645c-0.11,0-0.205,0.04-0.284,0.119
				c-0.08,0.08-0.119,0.174-0.119,0.284v8.408c0,0.11,0.039,0.204,0.119,0.283c0.079,0.079,0.174,0.119,0.284,0.119h10.748v1.975
				H53.587c-0.329,0-0.637-0.062-0.923-0.184c-0.287-0.121-0.539-0.292-0.758-0.512c-0.22-0.22-0.39-0.472-0.512-0.759
				c-0.123-0.286-0.183-0.594-0.183-0.923v-8.408c0-0.329,0.061-0.637,0.183-0.923c0.122-0.287,0.292-0.54,0.512-0.759
				c0.219-0.219,0.472-0.39,0.758-0.512c0.286-0.121,0.594-0.182,0.923-0.182h10.748v1.974H53.587z"/>
			<path clip-path="url(#SVGID_4_)" fill="#243665" d="M77.386,13.67h1.975v10.785c0,0.329-0.062,0.637-0.183,0.923
				c-0.122,0.287-0.293,0.539-0.512,0.759c-0.22,0.22-0.473,0.391-0.759,0.512c-0.286,0.122-0.594,0.184-0.924,0.184h-8.408
				c-0.328,0-0.637-0.062-0.923-0.184c-0.286-0.121-0.539-0.292-0.759-0.512c-0.219-0.22-0.39-0.472-0.512-0.759
				c-0.122-0.286-0.183-0.594-0.183-0.923V13.67h1.975v10.785c0,0.11,0.039,0.204,0.119,0.283c0.078,0.08,0.173,0.119,0.282,0.119
				h8.408c0.11,0,0.204-0.039,0.284-0.119c0.079-0.079,0.118-0.173,0.118-0.283V13.67z"/>
			<path clip-path="url(#SVGID_4_)" fill="#243665" d="M99.102,19.757c0.243,0.208,0.436,0.463,0.575,0.768s0.211,0.634,0.211,0.987
				v2.942c0,0.329-0.062,0.637-0.184,0.923c-0.122,0.287-0.292,0.539-0.512,0.759c-0.219,0.22-0.472,0.391-0.759,0.512
				c-0.286,0.122-0.594,0.184-0.923,0.184H86.727V13.67h10.236c0.329,0,0.637,0.062,0.923,0.183s0.539,0.292,0.759,0.512
				c0.219,0.219,0.39,0.472,0.512,0.759c0.121,0.286,0.183,0.594,0.183,0.923v2.687C99.339,19.075,99.26,19.417,99.102,19.757
				 M89.103,15.645c-0.109,0-0.204,0.04-0.283,0.119c-0.079,0.08-0.119,0.174-0.119,0.284v2.687c0,0.11,0.04,0.204,0.119,0.284
				c0.079,0.079,0.174,0.118,0.283,0.118h7.86c0.109,0,0.203-0.04,0.283-0.118c0.079-0.08,0.119-0.174,0.119-0.284v-2.687
				c0-0.11-0.04-0.204-0.119-0.284c-0.08-0.079-0.174-0.119-0.283-0.119H89.103z M97.913,21.513c0-0.11-0.04-0.204-0.119-0.284
				c-0.079-0.079-0.173-0.118-0.283-0.118h-8.408c-0.109,0-0.204,0.039-0.283,0.118c-0.079,0.08-0.119,0.174-0.119,0.284v2.942
				c0,0.11,0.04,0.204,0.119,0.283s0.174,0.119,0.283,0.119h8.408c0.11,0,0.204-0.04,0.283-0.119s0.119-0.173,0.119-0.283V21.513z"
				/>
			<rect x="101.897" y="13.67" clip-path="url(#SVGID_4_)" fill="#243665" width="1.975" height="13.162"/>
			<polygon clip-path="url(#SVGID_4_)" fill="#243665" points="118.403,13.67 118.403,15.645 112.811,15.645 112.811,26.832 
				110.836,26.832 110.836,15.645 105.242,15.645 105.242,13.67 			"/>
			<rect x="81.606" y="19.573" clip-path="url(#SVGID_4_)" fill="#243665" width="2.934" height="1.563"/>
			<path clip-path="url(#SVGID_4_)" fill="#243665" d="M54.028,31.754c0.088,0,0.169,0.017,0.246,0.049
				c0.076,0.032,0.144,0.078,0.202,0.137c0.058,0.059,0.104,0.126,0.136,0.202c0.033,0.076,0.049,0.158,0.049,0.246v2.24
				c0,0.088-0.016,0.17-0.049,0.246c-0.032,0.076-0.078,0.144-0.136,0.202c-0.059,0.059-0.126,0.104-0.202,0.137
				c-0.077,0.032-0.158,0.049-0.246,0.049h-2.874v-3.508H54.028z M54.135,32.388c0-0.029-0.01-0.055-0.032-0.076
				c-0.021-0.021-0.046-0.031-0.075-0.031h-2.241c-0.029,0-0.055,0.011-0.076,0.031c-0.021,0.021-0.032,0.047-0.032,0.076v2.24
				c0,0.029,0.011,0.055,0.032,0.075c0.021,0.021,0.046,0.032,0.076,0.032h2.241c0.029,0,0.054-0.011,0.075-0.032
				c0.021-0.021,0.032-0.046,0.032-0.075V32.388z"/>
			<rect x="55.456" y="31.754" clip-path="url(#SVGID_4_)" fill="#243665" width="0.526" height="3.508"/>
			<path clip-path="url(#SVGID_4_)" fill="#243665" d="M60.273,32.597h-0.526v-0.209c0-0.029-0.011-0.055-0.032-0.076
				c-0.021-0.021-0.046-0.031-0.076-0.031h-2.241c-0.029,0-0.054,0.011-0.075,0.031c-0.021,0.021-0.032,0.047-0.032,0.076v2.24
				c0,0.029,0.01,0.055,0.032,0.075c0.021,0.021,0.046,0.032,0.075,0.032h2.241c0.029,0,0.055-0.011,0.076-0.032
				c0.021-0.021,0.032-0.046,0.032-0.075v-0.76h-0.828v-0.526h1.354v1.286c0,0.088-0.016,0.17-0.048,0.246
				c-0.033,0.076-0.078,0.144-0.137,0.202s-0.125,0.104-0.202,0.137c-0.076,0.032-0.158,0.049-0.246,0.049h-2.241
				c-0.087,0-0.169-0.017-0.246-0.049c-0.077-0.032-0.144-0.078-0.203-0.137c-0.058-0.059-0.104-0.126-0.136-0.202
				s-0.049-0.158-0.049-0.246v-2.24c0-0.088,0.017-0.17,0.049-0.246s0.078-0.144,0.136-0.202c0.059-0.059,0.126-0.104,0.203-0.137
				c0.076-0.032,0.158-0.049,0.246-0.049h2.241c0.088,0,0.17,0.017,0.246,0.049c0.077,0.032,0.144,0.078,0.202,0.137
				s0.104,0.126,0.137,0.202c0.032,0.076,0.048,0.158,0.048,0.246V32.597z"/>
			<rect x="61.057" y="31.754" clip-path="url(#SVGID_4_)" fill="#243665" width="0.526" height="3.508"/>
			<polygon clip-path="url(#SVGID_4_)" fill="#243665" points="65.7,31.754 65.7,32.28 64.209,32.28 64.209,35.262 63.683,35.262 
				63.683,32.28 62.192,32.28 62.192,31.754 			"/>
			<path clip-path="url(#SVGID_4_)" fill="#243665" d="M69.192,31.754c0.088,0,0.17,0.017,0.246,0.049s0.144,0.078,0.202,0.137
				s0.104,0.126,0.136,0.202c0.033,0.076,0.049,0.158,0.049,0.246v2.874H69.3v-1.228h-2.455v1.228h-0.526v-2.874
				c0-0.088,0.016-0.17,0.049-0.246c0.032-0.076,0.077-0.144,0.136-0.202s0.126-0.104,0.202-0.137s0.158-0.049,0.246-0.049H69.192z
				 M69.3,33.508v-1.12c0-0.029-0.011-0.055-0.032-0.076c-0.021-0.021-0.046-0.031-0.075-0.031h-2.241
				c-0.029,0-0.055,0.011-0.075,0.031c-0.021,0.021-0.031,0.047-0.031,0.076v1.12H69.3z"/>
			<polygon clip-path="url(#SVGID_4_)" fill="#243665" points="70.629,31.749 71.155,31.749 71.155,34.735 74.137,34.735 
				74.137,35.262 70.629,35.262 			"/>
			<path clip-path="url(#SVGID_4_)" fill="#243665" d="M79.202,31.754c0.088,0,0.17,0.017,0.246,0.049s0.145,0.078,0.202,0.137
				c0.059,0.059,0.104,0.126,0.137,0.202s0.049,0.158,0.049,0.246v2.874H79.31v-1.228h-2.455v1.228h-0.526v-2.874
				c0-0.088,0.017-0.17,0.049-0.246c0.033-0.076,0.078-0.144,0.137-0.202s0.126-0.104,0.202-0.137s0.158-0.049,0.246-0.049H79.202z
				 M79.31,33.508v-1.12c0-0.029-0.011-0.055-0.031-0.076c-0.021-0.021-0.047-0.031-0.076-0.031h-2.24
				c-0.029,0-0.055,0.011-0.075,0.031c-0.021,0.021-0.032,0.047-0.032,0.076v1.12H79.31z"/>
			<path clip-path="url(#SVGID_4_)" fill="#243665" d="M84.142,32.597h-0.525v-0.209c0-0.029-0.011-0.055-0.032-0.076
				c-0.021-0.021-0.046-0.031-0.075-0.031h-2.241c-0.028,0-0.054,0.011-0.075,0.031c-0.021,0.021-0.031,0.047-0.031,0.076v2.24
				c0,0.029,0.011,0.055,0.031,0.075c0.021,0.021,0.047,0.032,0.075,0.032h2.241c0.029,0,0.055-0.011,0.075-0.032
				c0.021-0.021,0.032-0.046,0.032-0.075v-0.76h-0.828v-0.526h1.354v1.286c0,0.088-0.016,0.17-0.048,0.246
				c-0.033,0.076-0.078,0.144-0.137,0.202s-0.126,0.104-0.202,0.137s-0.158,0.049-0.246,0.049h-2.241
				c-0.087,0-0.169-0.017-0.245-0.049c-0.077-0.032-0.145-0.078-0.202-0.137c-0.059-0.059-0.104-0.126-0.137-0.202
				s-0.049-0.158-0.049-0.246v-2.24c0-0.088,0.017-0.17,0.049-0.246s0.078-0.144,0.137-0.202c0.058-0.059,0.125-0.104,0.202-0.137
				c0.076-0.032,0.158-0.049,0.245-0.049h2.241c0.088,0,0.17,0.017,0.246,0.049s0.144,0.078,0.202,0.137s0.104,0.126,0.137,0.202
				c0.032,0.076,0.048,0.158,0.048,0.246V32.597z"/>
			<polygon clip-path="url(#SVGID_4_)" fill="#243665" points="88.146,32.28 85.457,32.28 85.457,33.244 87.62,33.244 87.62,33.771 
				85.457,33.771 85.457,34.735 88.146,34.735 88.146,35.262 84.931,35.262 84.931,31.754 88.146,31.754 			"/>
			<polygon clip-path="url(#SVGID_4_)" fill="#243665" points="91.878,31.754 92.403,31.754 92.403,35.262 91.78,35.262 
				89.423,32.455 89.423,35.262 88.896,35.262 88.896,31.754 89.52,31.754 91.878,34.56 			"/>
			<path clip-path="url(#SVGID_4_)" fill="#243665" d="M93.826,32.28c-0.029,0-0.055,0.011-0.076,0.031
				c-0.021,0.021-0.031,0.047-0.031,0.076v2.24c0,0.029,0.011,0.055,0.031,0.075c0.021,0.021,0.047,0.032,0.076,0.032h2.864v0.526
				h-2.864c-0.088,0-0.17-0.017-0.246-0.049s-0.144-0.078-0.202-0.137s-0.104-0.126-0.137-0.202s-0.049-0.158-0.049-0.246v-2.24
				c0-0.088,0.017-0.17,0.049-0.246s0.078-0.144,0.137-0.202s0.126-0.104,0.202-0.137s0.158-0.049,0.246-0.049h2.864v0.526H93.826z"
				/>
			<polygon clip-path="url(#SVGID_4_)" fill="#243665" points="101.03,31.754 99.413,33.946 99.413,35.262 98.888,35.262 
				98.888,33.946 97.27,31.754 97.889,31.754 99.15,33.352 100.407,31.754 			"/>
		</g>
		<g clip-path="url(#SVGID_2_)">
			<defs>
				<path id="SVGID_5_" d="M29.42,6.566L18.338,12.98c-0.305,0.177-0.494,0.503-0.494,0.856v12.829c0,0.353,0.189,0.68,0.494,0.856
					l11.082,6.414c0.306,0.177,0.682,0.177,0.988,0l11.082-6.414c0.306-0.177,0.494-0.504,0.494-0.856V13.836
					c0-0.354-0.188-0.68-0.494-0.856L30.408,6.566c-0.153-0.088-0.324-0.132-0.494-0.132S29.573,6.478,29.42,6.566"/>
			</defs>
			<clipPath id="SVGID_6_">
				<use xlink:href="#SVGID_5_"  overflow="visible"/>
			</clipPath>
			
				<linearGradient id="SVGID_7_" gradientUnits="userSpaceOnUse" x1="-0.7778" y1="-3.0913" x2="-0.686" y2="-3.0913" gradientTransform="matrix(262.1406 0 0 -262.1406 221.7188 -790.0469)">
				<stop  offset="0" style="stop-color:#8BD8BD"/>
				<stop  offset="0.005" style="stop-color:#8BD8BD"/>
				<stop  offset="1" style="stop-color:#5CBBC8"/>
			</linearGradient>
			<rect x="17.844" y="6.434" clip-path="url(#SVGID_6_)" fill="url(#SVGID_7_)" width="24.139" height="27.679"/>
		</g>
		<g clip-path="url(#SVGID_2_)">
			<defs>
				<rect id="SVGID_8_" x="-2.563" y="-45.125" width="138.125" height="138.125"/>
			</defs>
			<clipPath id="SVGID_9_">
				<use xlink:href="#SVGID_8_"  overflow="visible"/>
			</clipPath>
			
				<linearGradient id="SVGID_10_" gradientUnits="userSpaceOnUse" x1="-0.7725" y1="-3.0791" x2="-0.6803" y2="-3.0791" gradientTransform="matrix(263.141 0 0 -263.141 221.1946 -790.0392)">
				<stop  offset="0" style="stop-color:#8BD8BD"/>
				<stop  offset="0.005" style="stop-color:#8BD8BD"/>
				<stop  offset="1" style="stop-color:#5CBBC8"/>
			</linearGradient>
			<path clip-path="url(#SVGID_9_)" fill="url(#SVGID_10_)" d="M17.844,13.836L17.844,13.836v12.829c0,0.353,0.189,0.68,0.494,0.856
				l11.082,6.414c0.153,0.089,0.324,0.133,0.494,0.133s0.341-0.044,0.494-0.133l11.082-6.414c0.306-0.177,0.494-0.504,0.494-0.856
				V13.836c0-0.354-0.188-0.68-0.494-0.856L30.408,6.566c-0.153-0.088-0.324-0.132-0.494-0.132s-0.341,0.044-0.494,0.132
				L18.338,12.98C18.033,13.157,17.844,13.483,17.844,13.836L17.844,13.836L17.844,13.836c0-0.354,0.189-0.68,0.494-0.856
				l11.082-6.414c0.153-0.088,0.324-0.132,0.494-0.132s0.341,0.044,0.494,0.132l11.082,6.414c0.306,0.177,0.494,0.503,0.494,0.856
				v12.829c0,0.353-0.188,0.68-0.494,0.856l-11.082,6.414c-0.153,0.089-0.324,0.133-0.494,0.133s-0.341-0.044-0.494-0.133
				l-11.082-6.414c-0.305-0.177-0.494-0.504-0.494-0.856V13.836L17.844,13.836z"/>
			<path clip-path="url(#SVGID_9_)" fill="#243665" d="M43.802,10.559l-12.459-7.21c-0.882-0.51-1.976-0.51-2.858,0l-12.459,7.21
				c-0.882,0.51-1.429,1.461-1.429,2.481v14.421c0,1.021,0.547,1.972,1.429,2.482l12.459,7.21c0.441,0.256,0.935,0.383,1.429,0.383
				c0.494,0,0.988-0.127,1.429-0.383l12.459-7.21c0.882-0.511,1.43-1.462,1.43-2.482V13.04
				C45.231,12.02,44.684,11.069,43.802,10.559 M16.375,11.164l12.46-7.21c0.332-0.193,0.706-0.289,1.08-0.289
				c0.374,0,0.747,0.096,1.08,0.289l12.459,7.21c0.251,0.146,0.466,0.338,0.637,0.563c0.07,0.093,0.039,0.227-0.062,0.283
				l-12.868,7.148c-0.766,0.425-1.708,0.411-2.463-0.036l-12.531-7.438c-0.135-0.08-0.146-0.272-0.02-0.368
				C16.219,11.262,16.295,11.211,16.375,11.164 M16.375,29.337c-0.667-0.386-1.08-1.104-1.08-1.876V13.04
				c0-0.235,0.039-0.466,0.112-0.684c0.043-0.134,0.201-0.189,0.321-0.117l12.614,7.486c0.027,0.017,0.054,0.032,0.082,0.047
				c0.696,0.386,1.141,1.107,1.141,1.904v14.785c0,0.185-0.182,0.317-0.357,0.258c-0.128-0.044-0.254-0.102-0.374-0.172
				L16.375,29.337z M44.534,27.461c0,0.771-0.414,1.49-1.081,1.876l-12.459,7.21c-0.12,0.07-0.246,0.128-0.374,0.172
				c-0.175,0.06-0.356-0.073-0.356-0.258V21.762c0-0.818,0.444-1.576,1.168-1.955c0.023-0.012,0.045-0.025,0.068-0.037l12.739-7.077
				c0.123-0.068,0.271,0.013,0.286,0.152c0.004,0.064,0.008,0.13,0.008,0.195V27.461z"/>
		</g>
	</g>
</g>
<g>
	<g>
		<path fill="#243665" d="M52.391,15.816c-0.115,0-0.215,0.042-0.298,0.126c-0.083,0.083-0.125,0.183-0.125,0.298v8.843
			c0,0.116,0.041,0.216,0.125,0.3c0.083,0.083,0.183,0.124,0.298,0.124h11.305v2.077H52.391c-0.346,0-0.67-0.064-0.971-0.192
			c-0.301-0.128-0.567-0.309-0.798-0.539c-0.23-0.229-0.41-0.496-0.538-0.797c-0.129-0.302-0.193-0.626-0.193-0.973V16.24
			c0-0.347,0.064-0.67,0.193-0.971c0.128-0.301,0.307-0.567,0.538-0.799c0.231-0.23,0.497-0.41,0.798-0.538
			c0.301-0.128,0.625-0.192,0.971-0.192h11.305v2.076H52.391z"/>
		<path fill="#243665" d="M77.425,13.74H79.5v11.343c0,0.347-0.063,0.671-0.192,0.973c-0.127,0.301-0.306,0.567-0.538,0.797
			c-0.23,0.23-0.496,0.411-0.797,0.539c-0.302,0.128-0.625,0.192-0.972,0.192h-8.845c-0.346,0-0.669-0.064-0.97-0.192
			c-0.302-0.128-0.567-0.309-0.799-0.539c-0.23-0.229-0.409-0.496-0.538-0.797c-0.128-0.302-0.192-0.626-0.192-0.973V13.74h2.077
			v11.343c0,0.116,0.041,0.216,0.125,0.3c0.083,0.083,0.182,0.124,0.297,0.124h8.845c0.116,0,0.215-0.041,0.299-0.124
			c0.083-0.084,0.125-0.184,0.125-0.3V13.74z"/>
		<path fill="#243665" d="M100.266,20.144c0.256,0.218,0.459,0.487,0.604,0.807c0.148,0.321,0.222,0.667,0.222,1.039v3.094
			c0,0.347-0.064,0.671-0.191,0.973c-0.129,0.301-0.309,0.567-0.539,0.797c-0.23,0.23-0.497,0.411-0.798,0.539
			s-0.625,0.192-0.971,0.192H87.248V13.74h10.768c0.347,0,0.67,0.064,0.972,0.192c0.301,0.128,0.566,0.307,0.797,0.538
			c0.23,0.231,0.41,0.498,0.539,0.799c0.128,0.301,0.192,0.624,0.192,0.971v2.826C100.516,19.425,100.431,19.784,100.266,20.144z
			 M89.748,15.816c-0.115,0-0.215,0.042-0.298,0.126c-0.084,0.083-0.125,0.183-0.125,0.298v2.826c0,0.116,0.041,0.215,0.125,0.299
			c0.083,0.083,0.183,0.124,0.298,0.124h8.268c0.114,0,0.215-0.041,0.298-0.124c0.084-0.083,0.125-0.183,0.125-0.299V16.24
			c0-0.115-0.041-0.214-0.125-0.298c-0.083-0.083-0.184-0.126-0.298-0.126H89.748z M99.016,21.989c0-0.116-0.042-0.216-0.125-0.299
			c-0.084-0.083-0.182-0.125-0.298-0.125h-8.845c-0.115,0-0.215,0.042-0.298,0.125c-0.084,0.083-0.125,0.183-0.125,0.299v3.094
			c0,0.116,0.041,0.216,0.125,0.3c0.083,0.083,0.183,0.124,0.298,0.124h8.845c0.116,0,0.214-0.041,0.298-0.124
			c0.083-0.084,0.125-0.184,0.125-0.3V21.989z"/>
		<path fill="#243665" d="M103.207,13.74h2.077v13.844h-2.077V13.74z"/>
		<path fill="#243665" d="M120.569,13.74v2.076h-5.885v11.768h-2.077V15.816h-5.882V13.74H120.569z"/>
	</g>
	<g>
		<path fill="#243665" d="M81.862,19.949h3.086v1.644h-3.086V19.949z"/>
	</g>
	<g>
		<path fill="#243665" d="M53.106,32.762c0.1,0,0.193,0.019,0.28,0.055c0.086,0.039,0.164,0.09,0.23,0.156
			c0.067,0.066,0.119,0.144,0.156,0.231c0.036,0.087,0.055,0.179,0.055,0.279v2.553c0,0.099-0.019,0.192-0.055,0.279
			c-0.037,0.087-0.089,0.165-0.156,0.23c-0.066,0.067-0.144,0.119-0.23,0.155c-0.087,0.037-0.181,0.057-0.28,0.057h-3.273v-3.996
			H53.106z M53.228,33.483c0-0.034-0.012-0.063-0.036-0.087c-0.024-0.023-0.053-0.035-0.086-0.035h-2.553
			c-0.033,0-0.062,0.012-0.086,0.035c-0.024,0.024-0.036,0.053-0.036,0.087v2.553c0,0.032,0.012,0.061,0.036,0.085
			c0.024,0.025,0.053,0.037,0.086,0.037h2.553c0.034,0,0.062-0.012,0.086-0.037c0.024-0.024,0.036-0.053,0.036-0.085V33.483z"/>
		<path fill="#243665" d="M54.732,32.762h0.599v3.996h-0.599V32.762z"/>
		<path fill="#243665" d="M60.22,33.723h-0.599v-0.239c0-0.034-0.012-0.063-0.037-0.087c-0.024-0.023-0.052-0.035-0.085-0.035
			h-2.553c-0.034,0-0.062,0.012-0.086,0.035c-0.023,0.024-0.036,0.053-0.036,0.087v2.553c0,0.032,0.012,0.061,0.036,0.085
			c0.024,0.025,0.053,0.037,0.086,0.037h2.553c0.033,0,0.062-0.012,0.085-0.037c0.024-0.024,0.037-0.053,0.037-0.085v-0.865h-0.943
			v-0.602h1.542v1.467c0,0.099-0.018,0.192-0.056,0.279c-0.037,0.087-0.088,0.165-0.155,0.23c-0.066,0.067-0.144,0.119-0.23,0.155
			c-0.087,0.037-0.181,0.057-0.28,0.057h-2.553c-0.1,0-0.194-0.02-0.28-0.057c-0.087-0.036-0.164-0.088-0.23-0.155
			c-0.067-0.065-0.119-0.144-0.156-0.23c-0.037-0.087-0.055-0.181-0.055-0.279v-2.553c0-0.101,0.018-0.192,0.055-0.279
			c0.037-0.088,0.089-0.165,0.156-0.231c0.066-0.066,0.143-0.117,0.23-0.156c0.086-0.036,0.18-0.055,0.28-0.055h2.553
			c0.099,0,0.193,0.019,0.28,0.055c0.086,0.039,0.164,0.09,0.23,0.156c0.067,0.066,0.118,0.144,0.155,0.231
			c0.038,0.087,0.056,0.179,0.056,0.279V33.723z"/>
		<path fill="#243665" d="M61.113,32.762h0.6v3.996h-0.6V32.762z"/>
		<path fill="#243665" d="M66.401,32.762v0.6h-1.698v3.396h-0.6v-3.396h-1.698v-0.6H66.401z"/>
		<path fill="#243665" d="M70.38,32.762c0.101,0,0.193,0.019,0.281,0.055c0.087,0.039,0.163,0.09,0.23,0.156
			c0.065,0.066,0.117,0.144,0.154,0.231c0.037,0.087,0.057,0.179,0.057,0.279v3.274h-0.6V35.36h-2.798v1.397h-0.6v-3.274
			c0-0.101,0.021-0.192,0.056-0.279c0.039-0.088,0.089-0.165,0.156-0.231c0.066-0.066,0.144-0.117,0.229-0.156
			c0.087-0.036,0.18-0.055,0.281-0.055H70.38z M70.503,34.759v-1.275c0-0.034-0.012-0.063-0.037-0.087
			c-0.023-0.023-0.052-0.035-0.086-0.035h-2.552c-0.033,0-0.062,0.012-0.086,0.035c-0.025,0.024-0.037,0.053-0.037,0.087v1.275
			H70.503z"/>
		<path fill="#243665" d="M72.018,32.757h0.599v3.401h3.397v0.6h-3.996V32.757z"/>
		<path fill="#243665" d="M81.784,32.762c0.101,0,0.192,0.019,0.28,0.055c0.087,0.039,0.164,0.09,0.23,0.156
			s0.119,0.144,0.155,0.231c0.038,0.087,0.056,0.179,0.056,0.279v3.274h-0.6V35.36h-2.797v1.397h-0.6v-3.274
			c0-0.101,0.02-0.192,0.055-0.279c0.038-0.088,0.091-0.165,0.156-0.231c0.066-0.066,0.145-0.117,0.23-0.156
			c0.087-0.036,0.18-0.055,0.28-0.055H81.784z M81.906,34.759v-1.275c0-0.034-0.012-0.063-0.037-0.087
			c-0.023-0.023-0.053-0.035-0.085-0.035h-2.553c-0.032,0-0.062,0.012-0.085,0.035c-0.025,0.024-0.037,0.053-0.037,0.087v1.275
			H81.906z"/>
		<path fill="#243665" d="M87.412,33.723h-0.6v-0.239c0-0.034-0.013-0.063-0.038-0.087c-0.022-0.023-0.052-0.035-0.086-0.035h-2.551
			c-0.035,0-0.063,0.012-0.086,0.035c-0.024,0.024-0.036,0.053-0.036,0.087v2.553c0,0.032,0.012,0.061,0.036,0.085
			c0.023,0.025,0.051,0.037,0.086,0.037h2.551c0.034,0,0.063-0.012,0.086-0.037c0.025-0.024,0.038-0.053,0.038-0.085v-0.865h-0.944
			v-0.602h1.544v1.467c0,0.099-0.02,0.192-0.058,0.279c-0.037,0.087-0.087,0.165-0.154,0.23c-0.066,0.067-0.143,0.119-0.23,0.155
			c-0.087,0.037-0.181,0.057-0.281,0.057h-2.551c-0.1,0-0.194-0.02-0.281-0.057c-0.086-0.036-0.163-0.088-0.23-0.155
			c-0.067-0.065-0.117-0.144-0.155-0.23c-0.035-0.087-0.057-0.181-0.057-0.279v-2.553c0-0.101,0.021-0.192,0.057-0.279
			c0.038-0.088,0.088-0.165,0.155-0.231s0.145-0.117,0.23-0.156c0.087-0.036,0.182-0.055,0.281-0.055h2.551
			c0.101,0,0.194,0.019,0.281,0.055c0.088,0.039,0.164,0.09,0.23,0.156c0.067,0.066,0.117,0.144,0.154,0.231
			c0.038,0.087,0.058,0.179,0.058,0.279V33.723z"/>
		<path fill="#243665" d="M91.973,33.361H88.91v1.098h2.463v0.599H88.91v1.101h3.063v0.6h-3.662v-3.996h3.662V33.361z"/>
		<path fill="#243665" d="M96.224,32.762h0.598v3.996h-0.709l-2.687-3.197v3.197h-0.6v-3.996h0.711l2.687,3.196V32.762z"/>
		<path fill="#243665" d="M98.441,33.361c-0.033,0-0.063,0.012-0.085,0.035c-0.024,0.024-0.036,0.053-0.036,0.087v2.553
			c0,0.032,0.012,0.061,0.036,0.085c0.022,0.025,0.052,0.037,0.085,0.037h3.264v0.6h-3.264c-0.098,0-0.191-0.02-0.278-0.057
			c-0.089-0.036-0.164-0.088-0.231-0.155c-0.067-0.065-0.117-0.144-0.155-0.23s-0.056-0.181-0.056-0.279v-2.553
			c0-0.101,0.018-0.192,0.056-0.279c0.038-0.088,0.088-0.165,0.155-0.231s0.143-0.117,0.231-0.156
			c0.087-0.036,0.181-0.055,0.278-0.055h3.264v0.6H98.441z"/>
		<path fill="#243665" d="M106.65,32.762l-1.843,2.497v1.499h-0.6v-1.499l-1.842-2.497h0.705l1.436,1.819l1.434-1.819H106.65z"/>
	</g>
	<g>
		<linearGradient id="SVGID_11_" gradientUnits="userSpaceOnUse" x1="14.7949" y1="20.6616" x2="40.1855" y2="20.6616">
			<stop  offset="0.005" style="stop-color:#8BD8BD"/>
			<stop  offset="1" style="stop-color:#5CBBC8"/>
		</linearGradient>
		<linearGradient id="SVGID_12_" gradientUnits="userSpaceOnUse" x1="14.2949" y1="20.6616" x2="40.6855" y2="20.6616">
			<stop  offset="0.005" style="stop-color:#8BD8BD"/>
			<stop  offset="1" style="stop-color:#5CBBC8"/>
		</linearGradient>
		<path fill="url(#SVGID_11_)" stroke="url(#SVGID_12_)" stroke-miterlimit="10" d="M14.795,13.915v13.494
			c0,0.371,0.199,0.716,0.52,0.901l11.656,6.747c0.322,0.186,0.717,0.186,1.039,0l11.656-6.747c0.322-0.186,0.52-0.53,0.52-0.901
			V13.915c0-0.372-0.197-0.714-0.52-0.901L28.01,6.267c-0.322-0.185-0.717-0.185-1.039,0l-11.656,6.747
			C14.994,13.2,14.795,13.542,14.795,13.915z"/>
		<path fill="#243665" d="M42.099,10.467L28.993,2.882c-0.927-0.536-2.078-0.536-3.005,0l-13.105,7.585
			c-0.928,0.537-1.504,1.537-1.504,2.609v15.169c0,1.072,0.576,2.074,1.504,2.61l13.105,7.585c0.463,0.27,0.983,0.402,1.502,0.402
			c0.521,0,1.039-0.133,1.503-0.402l13.105-7.585c0.928-0.536,1.504-1.538,1.504-2.61V13.077
			C43.603,12.004,43.027,11.004,42.099,10.467z M13.249,11.104L26.354,3.52c0.35-0.204,0.743-0.304,1.136-0.304
			c0.394,0,0.786,0.101,1.136,0.304l13.105,7.585c0.264,0.152,0.491,0.354,0.67,0.591c0.074,0.097,0.042,0.239-0.065,0.298
			l-13.535,7.519c-0.806,0.447-1.797,0.432-2.591-0.038l-13.18-7.823c-0.142-0.083-0.154-0.286-0.021-0.386
			C13.085,11.207,13.166,11.153,13.249,11.104z M13.249,30.219c-0.701-0.405-1.135-1.161-1.135-1.973V13.077
			c0-0.248,0.04-0.491,0.117-0.72c0.045-0.14,0.212-0.199,0.338-0.123l13.269,7.875c0.029,0.017,0.057,0.033,0.086,0.049
			c0.732,0.405,1.2,1.165,1.2,2.004v15.551c0,0.194-0.192,0.334-0.376,0.271c-0.135-0.046-0.267-0.106-0.393-0.181L13.249,30.219z
			 M42.868,28.246c0,0.812-0.435,1.567-1.137,1.973l-13.105,7.584c-0.126,0.074-0.258,0.135-0.394,0.181
			c-0.184,0.063-0.375-0.077-0.375-0.271V22.251c0-0.861,0.468-1.657,1.229-2.057c0.023-0.012,0.047-0.025,0.071-0.038l13.4-7.444
			c0.13-0.073,0.286,0.014,0.301,0.158c0.005,0.069,0.008,0.138,0.008,0.206V28.246z"/>
	</g>
</g>
</svg>
