<?xml version="1.0" encoding="utf-8"?>
<!-- Generator: Adobe Illustrator 16.0.0, SVG Export Plug-In . SVG Version: 6.00 Build 0)  -->
<!DOCTYPE svg PUBLIC "-//W3C//DTD SVG 1.1//EN" "http://www.w3.org/Graphics/SVG/1.1/DTD/svg11.dtd">
<svg version="1.1" id="Layer_1" xmlns="http://www.w3.org/2000/svg" xmlns:xlink="http://www.w3.org/1999/xlink" x="0px" y="0px"
	 width="130px" height="40px" viewBox="0 0 130 40" enable-background="new 0 0 130 40" xml:space="preserve">
<g>
	<g>
		<path fill="#FFFFFF" d="M51.2,15.076c-0.117,0-0.218,0.042-0.303,0.127c-0.085,0.085-0.127,0.186-0.127,0.303v8.986
			c0,0.117,0.042,0.218,0.127,0.303c0.084,0.084,0.186,0.128,0.303,0.128h11.486v2.108H51.2c-0.352,0-0.681-0.064-0.986-0.195
			c-0.306-0.13-0.576-0.313-0.811-0.548c-0.235-0.234-0.417-0.504-0.547-0.81c-0.131-0.306-0.196-0.635-0.196-0.986v-8.986
			c0-0.352,0.065-0.681,0.196-0.986c0.13-0.306,0.312-0.577,0.547-0.811c0.234-0.235,0.504-0.417,0.811-0.547
			c0.306-0.13,0.635-0.195,0.986-0.195h11.486v2.109H51.2z"/>
		<path fill="#FFFFFF" d="M76.633,12.967h2.11v11.525c0,0.352-0.065,0.681-0.196,0.986c-0.13,0.306-0.312,0.575-0.547,0.81
			c-0.233,0.235-0.504,0.418-0.81,0.548c-0.307,0.131-0.635,0.195-0.987,0.195h-8.985c-0.352,0-0.681-0.064-0.986-0.195
			c-0.306-0.13-0.576-0.313-0.812-0.548c-0.234-0.234-0.416-0.504-0.546-0.81c-0.131-0.306-0.196-0.635-0.196-0.986V12.967h2.11
			v11.525c0,0.117,0.042,0.218,0.127,0.303c0.084,0.084,0.186,0.128,0.303,0.128h8.985c0.117,0,0.218-0.044,0.303-0.128
			c0.084-0.085,0.127-0.186,0.127-0.303V12.967z"/>
		<path fill="#FFFFFF" d="M99.839,19.472c0.26,0.222,0.466,0.495,0.615,0.821s0.225,0.676,0.225,1.055v3.145
			c0,0.352-0.066,0.681-0.195,0.986c-0.131,0.306-0.313,0.575-0.548,0.81c-0.233,0.235-0.504,0.418-0.81,0.548
			c-0.306,0.131-0.636,0.195-0.987,0.195H86.614V12.967h10.939c0.352,0,0.681,0.065,0.986,0.195c0.306,0.13,0.575,0.313,0.81,0.547
			c0.234,0.234,0.417,0.504,0.548,0.811c0.13,0.306,0.195,0.635,0.195,0.986v2.872C100.093,18.743,100.007,19.107,99.839,19.472z
			 M89.154,15.076c-0.118,0-0.219,0.042-0.304,0.127s-0.126,0.186-0.126,0.303v2.872c0,0.117,0.041,0.218,0.126,0.303
			s0.186,0.126,0.304,0.126h8.399c0.116,0,0.217-0.042,0.303-0.126c0.084-0.084,0.127-0.186,0.127-0.303v-2.872
			c0-0.117-0.043-0.218-0.127-0.303c-0.086-0.085-0.187-0.127-0.303-0.127H89.154z M98.569,21.348c0-0.119-0.043-0.219-0.127-0.304
			c-0.086-0.084-0.186-0.127-0.304-0.127h-8.984c-0.118,0-0.219,0.043-0.304,0.127c-0.085,0.085-0.126,0.185-0.126,0.304v3.145
			c0,0.117,0.041,0.218,0.126,0.303c0.085,0.084,0.186,0.128,0.304,0.128h8.984c0.118,0,0.218-0.044,0.304-0.128
			c0.084-0.085,0.127-0.186,0.127-0.303V21.348z"/>
		<path fill="#FFFFFF" d="M102.827,12.967h2.109v14.064h-2.109V12.967z"/>
		<path fill="#FFFFFF" d="M120.466,12.967v2.109h-5.978v11.955h-2.109V15.076h-5.978v-2.109H120.466z"/>
	</g>
	<g>
		<path fill="#FFFFFF" d="M81.143,19.274h3.135v1.67h-3.135V19.274z"/>
	</g>
	<g>
		<path fill="#FFFFFF" d="M51.671,32.291c0.094,0,0.182,0.018,0.263,0.052c0.082,0.035,0.153,0.084,0.216,0.146
			c0.063,0.062,0.111,0.134,0.146,0.216c0.035,0.081,0.052,0.169,0.052,0.263v2.395c0,0.094-0.017,0.182-0.052,0.263
			c-0.035,0.082-0.083,0.153-0.146,0.216s-0.134,0.111-0.216,0.146c-0.082,0.034-0.169,0.052-0.263,0.052H48.6v-3.748H51.671z
			 M51.786,32.968c0-0.031-0.011-0.059-0.034-0.081c-0.023-0.022-0.05-0.033-0.081-0.033h-2.395c-0.031,0-0.058,0.011-0.081,0.033
			s-0.034,0.05-0.034,0.081v2.395c0,0.031,0.011,0.059,0.034,0.081s0.049,0.033,0.081,0.033h2.395c0.031,0,0.058-0.011,0.081-0.033
			c0.022-0.022,0.034-0.05,0.034-0.081V32.968z"/>
		<path fill="#FFFFFF" d="M53.197,32.291h0.562v3.748h-0.562V32.291z"/>
		<path fill="#FFFFFF" d="M58.345,33.191h-0.562v-0.224c0-0.031-0.011-0.059-0.034-0.081c-0.022-0.022-0.049-0.033-0.081-0.033
			h-2.395c-0.031,0-0.058,0.011-0.081,0.033c-0.023,0.022-0.034,0.05-0.034,0.081v2.395c0,0.031,0.011,0.059,0.034,0.081
			c0.022,0.022,0.049,0.033,0.081,0.033h2.395c0.031,0,0.058-0.011,0.081-0.033c0.023-0.022,0.034-0.05,0.034-0.081V34.55h-0.885
			v-0.562h1.447v1.374c0,0.094-0.018,0.182-0.052,0.263c-0.035,0.082-0.083,0.153-0.146,0.216s-0.135,0.111-0.216,0.146
			c-0.082,0.034-0.169,0.052-0.263,0.052h-2.395c-0.094,0-0.181-0.018-0.263-0.052c-0.082-0.035-0.154-0.084-0.216-0.146
			s-0.111-0.134-0.146-0.216c-0.035-0.081-0.052-0.169-0.052-0.263v-2.395c0-0.094,0.018-0.182,0.052-0.263
			c0.035-0.082,0.083-0.154,0.146-0.216c0.063-0.063,0.135-0.111,0.216-0.146c0.082-0.034,0.169-0.052,0.263-0.052h2.395
			c0.094,0,0.181,0.018,0.263,0.052c0.081,0.035,0.153,0.084,0.216,0.146c0.063,0.062,0.111,0.134,0.146,0.216
			c0.035,0.081,0.052,0.169,0.052,0.263V33.191z"/>
		<path fill="#FFFFFF" d="M59.183,32.291h0.562v3.748h-0.562V32.291z"/>
		<path fill="#FFFFFF" d="M64.144,32.291v0.563h-1.593v3.186h-0.562v-3.186h-1.593v-0.563H64.144z"/>
		<path fill="#FFFFFF" d="M67.877,32.291c0.094,0,0.182,0.018,0.263,0.052c0.082,0.035,0.153,0.084,0.216,0.146
			c0.063,0.062,0.111,0.134,0.146,0.216c0.034,0.081,0.052,0.169,0.052,0.263v3.071h-0.563v-1.312h-2.624v1.312h-0.563v-3.071
			c0-0.094,0.018-0.182,0.052-0.263c0.035-0.082,0.083-0.154,0.146-0.216c0.063-0.063,0.135-0.111,0.216-0.146
			c0.082-0.034,0.169-0.052,0.263-0.052H67.877z M67.991,34.165v-1.197c0-0.031-0.011-0.059-0.033-0.081
			c-0.023-0.022-0.05-0.033-0.081-0.033h-2.395c-0.031,0-0.058,0.011-0.081,0.033s-0.034,0.05-0.034,0.081v1.197H67.991z"/>
		<path fill="#FFFFFF" d="M69.412,32.286h0.563v3.19h3.186v0.563h-3.748V32.286z"/>
		<path fill="#FFFFFF" d="M78.574,32.291c0.094,0,0.182,0.018,0.263,0.052c0.082,0.035,0.154,0.084,0.217,0.146
			c0.063,0.062,0.11,0.134,0.146,0.216c0.034,0.081,0.052,0.169,0.052,0.263v3.071h-0.562v-1.312h-2.624v1.312h-0.563v-3.071
			c0-0.094,0.018-0.182,0.052-0.263c0.035-0.082,0.084-0.154,0.146-0.216c0.063-0.063,0.134-0.111,0.216-0.146
			c0.081-0.034,0.169-0.052,0.263-0.052H78.574z M78.689,34.165v-1.197c0-0.031-0.012-0.059-0.034-0.081s-0.05-0.033-0.081-0.033
			H76.18c-0.031,0-0.058,0.011-0.08,0.033c-0.023,0.022-0.034,0.05-0.034,0.081v1.197H78.689z"/>
		<path fill="#FFFFFF" d="M83.853,33.191H83.29v-0.224c0-0.031-0.012-0.059-0.034-0.081s-0.049-0.033-0.08-0.033H80.78
			c-0.03,0-0.058,0.011-0.08,0.033s-0.034,0.05-0.034,0.081v2.395c0,0.031,0.012,0.059,0.034,0.081s0.05,0.033,0.08,0.033h2.396
			c0.031,0,0.058-0.011,0.08-0.033s0.034-0.05,0.034-0.081V34.55h-0.885v-0.562h1.447v1.374c0,0.094-0.018,0.182-0.053,0.263
			c-0.034,0.082-0.083,0.153-0.146,0.216s-0.135,0.111-0.216,0.146c-0.082,0.034-0.169,0.052-0.263,0.052H80.78
			c-0.093,0-0.181-0.018-0.263-0.052c-0.081-0.035-0.153-0.084-0.216-0.146s-0.111-0.134-0.146-0.216
			c-0.035-0.081-0.052-0.169-0.052-0.263v-2.395c0-0.094,0.017-0.182,0.052-0.263c0.034-0.082,0.083-0.154,0.146-0.216
			c0.063-0.063,0.135-0.111,0.216-0.146c0.082-0.034,0.17-0.052,0.263-0.052h2.396c0.094,0,0.181,0.018,0.263,0.052
			c0.081,0.035,0.153,0.084,0.216,0.146c0.063,0.062,0.111,0.134,0.146,0.216c0.035,0.081,0.053,0.169,0.053,0.263V33.191z"/>
		<path fill="#FFFFFF" d="M88.131,32.854h-2.873v1.03h2.312v0.563h-2.312v1.03h2.873v0.563h-3.436v-3.748h3.436V32.854z"/>
		<path fill="#FFFFFF" d="M92.119,32.291h0.563v3.748h-0.667l-2.52-2.998v2.998h-0.562v-3.748H89.6l2.52,2.998V32.291z"/>
		<path fill="#FFFFFF" d="M94.201,32.854c-0.03,0-0.058,0.011-0.08,0.033s-0.034,0.05-0.034,0.081v2.395
			c0,0.031,0.012,0.059,0.034,0.081s0.05,0.033,0.08,0.033h3.062v0.563h-3.062c-0.093,0-0.181-0.018-0.263-0.052
			c-0.081-0.035-0.153-0.084-0.216-0.146s-0.111-0.134-0.146-0.216c-0.035-0.081-0.052-0.169-0.052-0.263v-2.395
			c0-0.094,0.017-0.182,0.052-0.263c0.034-0.082,0.083-0.154,0.146-0.216c0.063-0.063,0.135-0.111,0.216-0.146
			c0.082-0.034,0.17-0.052,0.263-0.052h3.062v0.563H94.201z"/>
		<path fill="#FFFFFF" d="M101.9,32.291l-1.729,2.343v1.405h-0.563v-1.405l-1.728-2.343h0.661l1.348,1.707l1.344-1.707H101.9z"/>
	</g>
	<g>
		<linearGradient id="SVGID_1_" gradientUnits="userSpaceOnUse" x1="13.0034" y1="19.9995" x2="38.7993" y2="19.9995">
			<stop  offset="0.005" style="stop-color:#8BD8BD"/>
			<stop  offset="1" style="stop-color:#5CBBC8"/>
		</linearGradient>
		<linearGradient id="SVGID_2_" gradientUnits="userSpaceOnUse" x1="12.5034" y1="19.9995" x2="39.2993" y2="19.9995">
			<stop  offset="0.005" style="stop-color:#8BD8BD"/>
			<stop  offset="1" style="stop-color:#5CBBC8"/>
		</linearGradient>
		<path fill="url(#SVGID_1_)" stroke="url(#SVGID_2_)" stroke-miterlimit="10" d="M13.003,13.145v13.709
			c0,0.377,0.202,0.727,0.528,0.915l11.842,6.854c0.327,0.189,0.729,0.189,1.056,0l11.842-6.854
			c0.327-0.188,0.527-0.538,0.527-0.915V13.145c0-0.378-0.2-0.727-0.527-0.916L26.43,5.375c-0.327-0.189-0.729-0.189-1.056,0
			l-11.842,6.854C13.206,12.418,13.003,12.766,13.003,13.145z"/>
		<path fill="#FFFFFF" d="M40.743,9.641L27.429,1.936c-0.942-0.544-2.111-0.544-3.054,0L11.061,9.641
			c-0.942,0.545-1.527,1.562-1.527,2.651v15.413c0,1.09,0.585,2.105,1.527,2.65l13.314,7.707c0.472,0.272,0.999,0.409,1.527,0.409
			c0.528,0,1.056-0.137,1.527-0.409l13.314-7.707c0.943-0.545,1.528-1.561,1.528-2.65V12.292
			C42.271,11.203,41.687,10.187,40.743,9.641z M11.433,10.289l13.315-7.706c0.355-0.206,0.754-0.309,1.153-0.309
			c0.4,0,0.798,0.103,1.155,0.309l13.314,7.706c0.268,0.155,0.498,0.36,0.681,0.601c0.075,0.1,0.042,0.243-0.066,0.303
			l-13.751,7.639c-0.818,0.455-1.826,0.439-2.632-0.038l-13.391-7.948c-0.144-0.085-0.156-0.291-0.021-0.394
			C11.267,10.393,11.348,10.339,11.433,10.289z M11.433,29.709c-0.712-0.412-1.153-1.181-1.153-2.004V12.292
			c0-0.251,0.041-0.498,0.12-0.731c0.046-0.143,0.215-0.203,0.343-0.125l13.48,8c0.029,0.018,0.058,0.034,0.087,0.05
			c0.744,0.412,1.22,1.183,1.22,2.035v15.8c0,0.198-0.195,0.339-0.382,0.275c-0.137-0.047-0.271-0.108-0.399-0.184L11.433,29.709z
			 M41.525,27.705c0,0.823-0.442,1.592-1.155,2.004l-13.314,7.704c-0.128,0.075-0.262,0.137-0.4,0.184
			c-0.187,0.063-0.381-0.077-0.381-0.275V21.613c0-0.873,0.475-1.684,1.249-2.089c0.024-0.013,0.048-0.027,0.073-0.04l13.614-7.563
			c0.132-0.073,0.29,0.014,0.305,0.163c0.005,0.069,0.009,0.138,0.009,0.208V27.705z"/>
	</g>
</g>
</svg>
